<svg width="56" height="56" viewBox="0 0 56 56" fill="none" xmlns="http://www.w3.org/2000/svg">
<rect width="56" height="56" rx="28" fill="#F0F0F0"/>
<path d="M40.9035 26.301C40.9035 27.5634 38.9835 27.5634 38.9835 26.301V20.1824H37.9365H27.8706C27.5295 20.1824 27.2305 20.0043 27.0599 19.7364C25.575 17.7162 24.0906 15.696 22.6057 13.6754H10.3297V34.24H24.3197C25.5826 34.24 25.5826 36.16 24.3197 36.16H10.3297V37.5476H27.8711C29.1339 37.5476 29.1339 39.4671 27.8711 39.4671H9.36969C8.83961 39.4671 8.41016 39.0376 8.41016 38.5076V12.7154C8.41016 12.1853 8.83961 11.7559 9.36969 11.7559H23.0885C23.3947 11.7559 23.6805 11.9028 23.8615 12.1494L25.2018 13.973H37.9365C38.4666 13.973 38.8965 14.403 38.8965 14.933V18.2624H39.9435C40.4736 18.2624 40.9035 18.6923 40.9035 19.2224V26.301ZM12.6844 32.7527C11.4215 32.7527 11.4215 30.8332 12.6844 30.8332H24.3197C25.5826 30.8332 25.5826 32.7527 24.3197 32.7527H12.6844ZM42.2207 35.0587C41.1912 34.3349 42.2939 32.7674 43.3233 33.4916L43.7419 33.786C42.8514 31.1861 40.4017 29.4295 37.6417 29.4295C34.0809 29.4295 31.1947 32.3157 31.1947 35.8765C31.1947 39.4369 34.0809 42.3235 37.6417 42.3235C39.7743 42.3235 41.7506 41.2832 42.96 39.5262C43.6739 38.4915 45.249 39.5791 44.5347 40.6137C42.9714 42.8852 40.4003 44.243 37.6417 44.243C33.0207 44.243 29.2747 40.497 29.2747 35.8765C29.2747 31.2555 33.0207 27.5095 37.6417 27.5095C41.2933 27.5095 44.5182 29.8779 45.618 33.3437L45.8268 33.0381C46.536 31.9987 48.1187 33.0782 47.4095 34.1181L45.8741 36.3664C45.5764 36.8672 44.9027 36.9887 44.4497 36.6272L42.2207 35.0587ZM16.5697 18.7617C17.3049 19.7879 15.7449 20.9052 15.0097 19.8795L12.2322 16.0036C11.4976 14.9779 13.0576 13.8601 13.7922 14.8863L16.5697 18.7617ZM20.4258 18.7617C21.161 19.7879 19.601 20.9052 18.8658 19.8795L16.0888 16.0036C15.3537 14.9779 16.9137 13.8601 17.6488 14.8863L20.4258 18.7617ZM24.2824 18.7617C25.0171 19.7879 23.457 20.9052 22.7224 19.8795L19.9449 16.0036C19.2098 14.9779 20.7698 13.8601 21.5049 14.8863L24.2824 18.7617ZM26.6125 15.8931L28.3539 18.2624H36.9765V15.8931H26.6125Z" fill="#1E1F24"/>
</svg>
