<svg width="56" height="56" viewBox="0 0 56 56" fill="none" xmlns="http://www.w3.org/2000/svg">
<rect width="56" height="56" rx="28" fill="#F0F0F0"/>
<g clip-path="url(#clip0_384_3091)">
<path d="M43.1168 20.8002C44.4986 22.0571 45.1328 22.1704 44.8881 23.9918C44.6807 25.5364 43.6982 26.1431 42.6563 27.1572C41.0129 28.7568 39.3696 30.3564 37.7262 31.956C35.9728 33.6627 34.2042 35.8024 31.8548 36.6069C30.1873 37.178 28.6459 37.1584 27.0578 38.0096C27.4815 38.3353 27.9053 38.6611 28.329 38.9869C28.6908 37.7415 28.7142 36.4247 29.0532 35.2027C29.8778 32.2307 31.7574 30.5714 33.8118 28.4608C35.1163 27.1205 41.3503 19.0885 43.5927 20.9961C44.4365 21.7139 45.6665 20.4953 44.8165 19.7722C41.2057 16.7005 37.7613 21.9219 35.4642 24.2819C33.185 26.6235 30.3092 28.9164 28.4205 31.583C26.9708 33.6298 27.3409 36.183 26.6601 38.5268C26.4425 39.2757 27.2824 39.8518 27.9313 39.504C30.3043 38.2322 32.9507 38.5524 35.1418 36.85C37.93 34.6836 40.3636 31.804 42.8941 29.3408C44.2844 27.9876 46.9275 26.273 47.311 24.2022C47.6941 22.1339 45.6798 20.7945 44.3407 19.5763C43.5183 18.8282 42.2908 20.0487 43.1168 20.8002Z" fill="#1E1F24"/>
<path d="M38.4057 23.6105C39.3344 23.8792 40.1196 25.0268 40.7752 25.6944C41.4582 26.39 42.0486 26.9343 42.5967 27.747C43.2162 28.6655 44.7163 27.8003 44.0912 26.8734C43.7584 26.38 43.4862 25.7875 43.033 25.3996C42.5492 24.9855 42.0913 24.5645 41.6402 24.1052C40.8114 23.2612 40.0425 22.282 38.8658 21.9416C37.7939 21.6314 37.3361 23.301 38.4057 23.6105Z" fill="#1E1F24"/>
<path d="M27.3626 37.8731C23.1532 37.9128 18.9437 37.9526 14.7343 37.9923C13.6212 38.0028 13.6184 39.7336 14.7343 39.7231C18.9437 39.6833 23.1532 39.6436 27.3626 39.6039C28.4757 39.5934 28.4785 37.8626 27.3626 37.8731Z" fill="#1E1F24"/>
<path d="M14.4141 33.8489C18.6876 33.8489 22.9611 33.8489 27.2346 33.8489C28.3482 33.8489 28.3501 32.1182 27.2346 32.1182C22.9611 32.1182 18.6876 32.1182 14.4141 32.1182C13.3004 32.1182 13.2986 33.8489 14.4141 33.8489Z" fill="#1E1F24"/>
<path d="M14.7363 28.1439C18.9457 28.1439 23.1551 28.1439 27.3645 28.1439C28.4782 28.1439 28.4801 26.4131 27.3645 26.4131C23.1551 26.4131 18.9457 26.4131 14.7363 26.4131C13.6227 26.4131 13.6208 28.1439 14.7363 28.1439Z" fill="#1E1F24"/>
<path d="M14.7363 22.4388C16.7449 22.4388 18.7534 22.4388 20.762 22.4388C21.8756 22.4388 21.8775 20.708 20.762 20.708C18.7534 20.708 16.7449 20.708 14.7363 20.708C13.6227 20.708 13.6208 22.4388 14.7363 22.4388Z" fill="#1E1F24"/>
<path d="M36.1527 34.0048C36.1874 36.1846 36.222 38.3643 36.2567 40.544C36.2721 41.5128 36.2875 42.4815 36.303 43.4503C36.3262 44.9107 36.6539 45.1895 35.4798 45.8395C33.9596 46.681 30.4707 46.0617 28.6993 46.0622C26.4784 46.0629 24.2574 46.0584 22.0364 46.0493C19.8155 46.0402 17.5946 46.0264 15.3737 46.0076C14.4512 45.9997 13.3138 46.1653 12.4125 45.9795C10.9727 45.6828 10.821 46.18 10.643 44.4004C10.2031 40.0048 10.6519 35.3183 10.6562 30.8938C10.6604 26.6418 10.6646 22.3897 10.6688 18.1376C10.6705 16.4074 10.0154 12.9314 10.6754 11.3844C11.5158 9.41476 14.424 10.0345 16.1533 10.0157C18.2925 9.99243 20.4319 9.98409 22.5713 9.98896C25.5629 9.99577 27.0992 10.2919 29.5346 12.4009C30.9182 13.599 32.2351 14.9214 33.4887 16.2539C35.8253 18.7375 36.1253 20.1717 36.154 23.4343C36.1637 24.5474 37.8945 24.5501 37.8847 23.4343C37.8633 21.0043 38.1302 19.2085 36.6889 17.2596C35.0233 15.0075 32.8006 13.0685 30.7584 11.177C29.6658 10.165 28.5825 8.9002 27.1615 8.40694C24.6067 7.52012 20.2592 8.25016 17.5794 8.27164C14.9412 8.29279 9.99188 6.95903 8.94615 9.88365C8.46191 11.2379 8.94242 13.6769 8.94098 15.1362C8.93926 16.887 8.93754 18.6379 8.93581 20.3887C8.93261 23.6403 8.92942 26.8919 8.92622 30.1435C8.92302 33.395 8.91982 36.6466 8.91662 39.8982C8.91525 41.2931 8.18886 45.6304 9.10692 46.8433C9.63124 47.536 10.179 47.5188 10.9319 47.6941C14.0008 48.4088 18.1105 47.7625 21.2961 47.7771C24.7509 47.7929 28.2058 47.797 31.6606 47.7892C33.0908 47.786 36.105 48.4846 37.2912 47.4938C38.3185 46.6357 38.047 45.3957 38.0453 44.1769C38.0405 40.7869 37.9374 37.3943 37.8835 34.0048C37.8658 32.8922 36.1349 32.8888 36.1527 34.0048Z" fill="#1E1F24"/>
<path d="M26.1615 10.291C26.1745 12.2816 26.1875 14.2721 26.2004 16.2627C26.2073 17.318 25.7582 19.4704 26.6374 20.285C27.4453 21.0336 29.2166 20.6413 30.1894 20.6418C32.2175 20.6428 34.2457 20.6439 36.2739 20.645C37.3876 20.6455 37.3894 18.9148 36.2739 18.9142C34.8422 18.9134 33.4106 18.9127 31.9789 18.9119C31.2631 18.9116 30.5473 18.9112 29.8315 18.9108C29.6334 18.9107 27.8064 19.0414 27.684 18.9097C27.8002 19.0348 27.9366 17.0868 27.9361 17.0092C27.9312 16.2627 27.9263 15.5162 27.9215 14.7698C27.9117 13.2768 27.902 11.7839 27.8923 10.291C27.885 9.17768 26.1542 9.17521 26.1615 10.291Z" fill="#1E1F24"/>
</g>
<defs>
<clipPath id="clip0_384_3091">
<rect width="40" height="40" fill="white" transform="translate(8 8)"/>
</clipPath>
</defs>
</svg>
