<svg width="56" height="56" viewBox="0 0 56 56" fill="none" xmlns="http://www.w3.org/2000/svg">
<rect width="56" height="56" rx="28" fill="#F0F0F0"/>
<path d="M28.0014 10.8525C18.5454 10.8525 10.8535 18.5455 10.8535 28.001C10.8535 37.4565 18.5454 45.1484 28.0014 45.1484C37.457 45.1484 45.1493 37.4565 45.1493 28.001C45.1493 18.5455 37.457 10.8525 28.0014 10.8525ZM28.0014 42.4435C20.0373 42.4435 13.5583 35.9646 13.5583 28.0009C13.5583 20.0363 20.0373 13.5573 28.0014 13.5573C35.9656 13.5573 42.4445 20.0363 42.4445 28.0009C42.4445 35.9646 35.9656 42.4435 28.0014 42.4435Z" fill="#1E1F24"/>
<path d="M25.2889 24.6395C25.2889 23.5547 26.8756 23.3694 28.252 23.3694C29.5492 23.3694 31.3217 23.9774 32.8038 24.7458L33.0943 21.7556C32.3531 21.3319 30.6336 20.829 28.887 20.7239L29.3103 17.6807H26.479L26.9028 20.7239C23.2515 21.0674 22.0605 23.1841 22.0605 24.9571C22.0605 29.4287 30.3947 28.4771 30.3947 31.2278C30.3947 32.2607 29.4165 32.6302 27.6961 32.6302C25.3681 32.6302 23.6211 31.8109 22.7221 30.9634L22.2719 34.3242C23.1194 34.8271 24.8383 35.2768 26.9028 35.383L26.479 38.3201H29.3103L28.887 35.356C33.1735 34.9853 33.9407 32.7094 33.9407 31.2019C33.9408 25.8837 25.2889 27.2059 25.2889 24.6395Z" fill="#1E1F24"/>
</svg>
