<svg width="56" height="56" viewBox="0 0 56 56" fill="none" xmlns="http://www.w3.org/2000/svg">
<rect width="56" height="56" rx="28" fill="#F0F0F0"/>
<path d="M41.2629 10.5H21.4254C21.1731 10.503 20.9217 10.5323 20.6754 10.5875C20.2903 10.5331 19.9019 10.5038 19.5129 10.5C17.453 10.4952 15.4653 11.259 13.9386 12.6418C12.4118 14.0247 11.4557 15.9274 11.2573 17.9777C11.0588 20.0281 11.6322 22.0788 12.8654 23.7288C14.0986 25.3788 15.9028 26.5096 17.9254 26.9V42C17.9287 42.9273 18.2985 43.8156 18.9542 44.4713C19.6099 45.1269 20.4982 45.4967 21.4254 45.5H41.2629C41.7226 45.5 42.1777 45.4095 42.6023 45.2336C43.027 45.0577 43.4128 44.7999 43.7378 44.4749C44.0628 44.1499 44.3206 43.7641 44.4965 43.3394C44.6724 42.9148 44.7629 42.4596 44.7629 42V14C44.7629 13.0718 44.3942 12.1815 43.7378 11.5251C43.0814 10.8688 42.1912 10.5 41.2629 10.5ZM13.5754 18.775C13.5754 17.5977 13.9247 16.4468 14.5791 15.4681C15.2334 14.4893 16.1634 13.7267 17.2514 13.2768C18.3393 12.8268 19.5363 12.7097 20.6908 12.9403C21.8454 13.1709 22.9055 13.7388 23.7372 14.5722C24.5688 15.4056 25.1345 16.4669 25.3626 17.6219C25.5908 18.7769 25.4712 19.9737 25.0189 21.0607C24.5667 22.1477 23.8021 23.0761 22.822 23.7283C21.8419 24.3806 20.6903 24.7275 19.5129 24.725C18.7322 24.725 17.9591 24.571 17.2379 24.2719C16.5167 23.9727 15.8616 23.5342 15.3101 22.9816C14.7586 22.4289 14.3215 21.7729 14.0238 21.051C13.7262 20.3292 13.5738 19.5558 13.5754 18.775ZM42.4254 42C42.4254 42.3083 42.303 42.604 42.085 42.822C41.8669 43.04 41.5713 43.1625 41.2629 43.1625H21.4254C21.1171 43.1625 20.8214 43.04 20.6034 42.822C20.3854 42.604 20.2629 42.3083 20.2629 42V27C22.2331 26.8183 24.071 25.9304 25.4379 24.5C25.5376 24.5121 25.6383 24.5121 25.7379 24.5H36.9879C37.2764 24.5 37.553 24.3854 37.7569 24.1815C37.9609 23.9776 38.0754 23.7009 38.0754 23.4125C38.0754 23.1241 37.9609 22.8475 37.7569 22.6435C37.553 22.4396 37.2764 22.325 36.9879 22.325H26.9879C27.7614 20.7558 28.0159 18.9813 27.7148 17.258C27.4138 15.5346 26.5726 13.9516 25.3129 12.7375H41.3129C41.6213 12.7375 41.9169 12.86 42.135 13.078C42.353 13.296 42.4754 13.5917 42.4754 13.9L42.4254 42Z" fill="#1E1F24"/>
<path d="M23.2491 16.0129C23.1419 15.9025 23.0137 15.8148 22.8719 15.7549C22.7302 15.6949 22.5779 15.6641 22.4241 15.6641C22.2702 15.6641 22.1179 15.6949 21.9762 15.7549C21.8345 15.8148 21.7063 15.9025 21.5991 16.0129L18.5491 19.0754L17.4241 18.0004C17.327 17.8639 17.2015 17.7501 17.0563 17.6666C16.9111 17.5831 16.7495 17.532 16.5827 17.5168C16.4159 17.5015 16.2478 17.5225 16.0899 17.5783C15.9319 17.634 15.7879 17.7233 15.6677 17.8399C15.5474 17.9565 15.4538 18.0977 15.3932 18.2538C15.3326 18.41 15.3065 18.5774 15.3166 18.7446C15.3267 18.9118 15.3728 19.0748 15.4518 19.2225C15.5307 19.3702 15.6407 19.4991 15.7741 19.6004L17.7241 21.5504C17.8326 21.6582 17.9614 21.7434 18.103 21.8014C18.2445 21.8593 18.3961 21.8887 18.5491 21.8879C18.8562 21.8806 19.1499 21.7605 19.3741 21.5504L23.2491 17.6629C23.3595 17.5557 23.4472 17.4275 23.5071 17.2857C23.567 17.144 23.5979 16.9917 23.5979 16.8379C23.5979 16.684 23.567 16.5317 23.5071 16.39C23.4472 16.2483 23.3595 16.1201 23.2491 16.0129Z" fill="#1E1F24"/>
<path d="M36.9488 26.9121H25.6988C25.4104 26.9121 25.1338 27.0267 24.9298 27.2306C24.7259 27.4346 24.6113 27.7112 24.6113 27.9996C24.6113 28.288 24.7259 28.5646 24.9298 28.7686C25.1338 28.9725 25.4104 29.0871 25.6988 29.0871H36.9488C37.2373 29.0871 37.5139 28.9725 37.7178 28.7686C37.9218 28.5646 38.0363 28.288 38.0363 27.9996C38.0363 27.7112 37.9218 27.4346 37.7178 27.2306C37.5139 27.0267 37.2373 26.9121 36.9488 26.9121Z" fill="#1E1F24"/>
<path d="M36.9488 31.4004H25.6988C25.4104 31.4004 25.1338 31.515 24.9298 31.7189C24.7259 31.9229 24.6113 32.1995 24.6113 32.4879C24.6113 32.7763 24.7259 33.0529 24.9298 33.2569C25.1338 33.4608 25.4104 33.5754 25.6988 33.5754H36.9488C37.2373 33.5754 37.5139 33.4608 37.7178 33.2569C37.9218 33.0529 38.0363 32.7763 38.0363 32.4879C38.0363 32.1995 37.9218 31.9229 37.7178 31.7189C37.5139 31.515 37.2373 31.4004 36.9488 31.4004Z" fill="#1E1F24"/>
</svg>
