<svg width="298" height="69" viewBox="0 0 298 69" fill="none" xmlns="http://www.w3.org/2000/svg">
<path d="M54.1138 37.2401V14.6527L42.1165 7.83948H30.1934L48.1892 18.0593V28.3533V40.6467L54.1138 37.2401Z" fill="black"/>
<path d="M23.0098 50.052L42.1165 61.1606H42.0424L42.3386 61.3827L54.6321 54.2733L60.5567 43.9793L42.4868 54.4954L23.0098 43.2388V50.052Z" fill="black"/>
<path d="M46.8558 43.3868H46.9298L36.2656 49.4595L42.1161 52.8661L61.5191 41.5354V27.2424L55.5945 16.9485V38.0547L46.8558 43.3868Z" fill="black"/>
<path d="M46.7079 18.874L27.3049 7.61731L15.0115 14.7268L9.08691 25.0948L27.4531 14.5046L36.3399 19.6886H36.1918L46.7079 25.7613V18.874Z" fill="black"/>
<path d="M27.6012 16.2079L8.19824 27.5386V41.7576L14.1228 52.0515V30.9453L22.8615 25.7613L33.5257 19.6145L27.6012 16.2079Z" fill="black"/>
<path d="M15.6035 31.7599V54.3473L27.6008 61.1606H39.598L21.5281 50.9407V40.6468V28.3533L15.6035 31.7599Z" fill="black"/>
<path d="M76.7539 45.6681V14.9986H90.2485C96.2071 14.9986 100.15 18.1532 100.15 23.0165C100.15 25.6015 98.4854 28.3179 96.2071 29.4571C99.5807 30.7277 101.509 33.8384 101.509 37.1245C101.509 42.0754 97.3901 45.6681 91.8258 45.6681H76.7539ZM83.4136 39.9285H90.818C93.1402 39.9285 94.7175 38.4827 94.7175 36.4234C94.7175 34.3642 93.0964 32.8307 90.7304 32.8307H83.4136V39.9285ZM83.4136 27.0912H90.2485C92.2639 27.0912 93.7974 25.6891 93.7974 23.8928C93.7974 22.0964 92.2639 20.7382 90.2923 20.7382H83.4136V27.0912ZM111.892 24.1118V27.8798C113.207 25.4701 116.098 23.5861 118.946 23.5861H119.384V29.3257C118.99 29.238 118.421 29.1942 118.026 29.1942C115.003 29.1942 111.892 31.4287 111.892 34.8023V45.6681H105.802V24.1118H111.892ZM128.892 24.1118V45.6681H122.802V24.1118H128.892ZM122.232 18.1532C122.232 16.094 123.853 14.4729 125.825 14.4729C127.928 14.4729 129.505 16.094 129.505 18.1532C129.505 20.1686 127.928 21.7459 125.825 21.7459C123.853 21.7459 122.232 20.1686 122.232 18.1532ZM150.185 45.6681V43.1707C148.959 45.0547 146.198 46.1939 143.789 46.1939C137.567 46.1939 133.186 41.5058 133.186 34.89C133.186 28.2741 137.567 23.5861 143.876 23.5861C146.374 23.5861 148.871 24.7252 150.185 26.434V14.9986H156.275V45.6681H150.185ZM139.32 34.89C139.32 38.2636 141.291 41.0239 144.84 41.0239C147.907 41.0239 150.185 38.3951 150.185 34.89C150.185 31.3849 147.951 28.7561 144.928 28.7561C141.554 28.7561 139.32 31.2096 139.32 34.89ZM172.136 49.6989C175.422 49.6989 177.525 47.9026 177.525 44.5728V42.645C176.079 44.4851 173.669 45.6681 171.26 45.6681C165.082 45.6681 160.569 41.1115 160.569 34.89C160.569 28.2741 164.951 23.5861 171.26 23.5861C173.757 23.5861 176.123 24.6814 177.525 26.434V24.1118H183.615V45.0109C183.615 50.6628 178.796 54.9128 172.267 54.9128C168.631 54.9128 164.951 53.6422 162.76 51.6267L165.564 47.3768C167.185 48.7351 169.945 49.6989 172.136 49.6989ZM166.703 34.89C166.703 38.6579 169.42 40.5857 172.092 40.5857C175.816 40.5857 177.525 37.694 177.525 34.7585C177.525 31.7792 175.86 28.7561 172.267 28.7561C168.938 28.7561 166.703 31.2096 166.703 34.89ZM208.107 42.6888C205.872 45.0547 202.367 46.1939 199.519 46.1939C192.772 46.1939 187.865 41.3744 187.865 34.8023C187.865 28.4494 192.553 23.5861 198.775 23.5861C205.04 23.5861 209.64 28.2303 209.64 34.4518V36.7301H193.867C194.481 39.359 196.803 41.1115 199.738 41.1115C201.885 41.1115 203.55 40.2352 204.865 38.9208L208.107 42.6888ZM198.906 28.5808C196.584 28.5808 194.612 30.1581 193.999 32.6117H203.901C203.463 30.2019 201.316 28.5808 198.906 28.5808ZM238.557 46.1939C230.802 46.1939 225.457 41.2867 225.457 34.2328V14.9986H232.117V34.2328C232.117 37.7817 234.789 40.279 238.557 40.279C242.325 40.279 244.998 37.7817 244.998 34.2328V14.9986H251.658V34.2328C251.658 41.2867 246.312 46.1939 238.557 46.1939ZM263.575 24.1118V26.6968C264.889 24.8129 267.299 23.5861 270.059 23.5861C274.747 23.5861 277.946 26.8283 277.946 31.604V45.6681H271.856V32.3488C271.856 30.2457 270.191 28.7561 267.869 28.7561C265.459 28.7561 263.575 30.3772 263.575 32.7869V45.6681H257.485V24.1118H263.575ZM289.425 24.1118V45.6681H283.335V24.1118H289.425ZM282.765 18.1532C282.765 16.094 284.386 14.4729 286.358 14.4729C288.461 14.4729 290.038 16.094 290.038 18.1532C290.038 20.1686 288.461 21.7459 286.358 21.7459C284.386 21.7459 282.765 20.1686 282.765 18.1532Z" fill="black"/>
</svg>
