<svg width="282" height="55" viewBox="0 0 282 55" fill="none" xmlns="http://www.w3.org/2000/svg">
<path d="M45.9956 30.24V7.6526L33.9984 0.839355H22.0752L40.0711 11.0592V21.3532V33.6466L45.9956 30.24Z" fill="white"/>
<path d="M14.8916 43.0515L33.9983 54.1601H33.9243L34.2205 54.3823L46.514 47.2728L52.4385 36.9789L34.3686 47.495L14.8916 36.2383V43.0515Z" fill="white"/>
<path d="M38.7376 36.3866H38.8117L28.1475 42.4593L33.998 45.8659L53.4009 34.5352V20.2422L47.4763 9.94824V31.0545L38.7376 36.3866Z" fill="white"/>
<path d="M38.5897 11.8739L19.1868 0.617188L6.89331 7.72666L0.96875 18.0946L19.3349 7.50449L28.2217 12.6885H28.0736L38.5897 18.7612V11.8739Z" fill="white"/>
<path d="M19.483 9.20752L0.0800781 20.5382V34.7572L6.00464 45.0511V23.9449L14.7434 18.7609L25.4076 12.6141L19.483 9.20752Z" fill="white"/>
<path d="M7.48535 24.7596V47.347L19.4826 54.1603H31.4798L13.4099 43.9404V33.6465V21.353L7.48535 24.7596Z" fill="white"/>
<path d="M68.6357 38.6679V7.99842H82.1303C88.0889 7.99842 92.0322 11.153 92.0322 16.0163C92.0322 18.6013 90.3672 21.3177 88.0889 22.4569C91.4626 23.7275 93.3904 26.8382 93.3904 30.1243C93.3904 35.0752 89.2719 38.6679 83.7076 38.6679H68.6357ZM75.2954 32.9283H82.6999C85.022 32.9283 86.5993 31.4825 86.5993 29.4232C86.5993 27.364 84.9782 25.8305 82.6123 25.8305H75.2954V32.9283ZM75.2954 20.091H82.1303C84.1457 20.091 85.6792 18.6889 85.6792 16.8926C85.6792 15.0962 84.1457 13.738 82.1741 13.738H75.2954V20.091ZM103.774 17.1116V20.8796C105.089 18.4699 107.98 16.5859 110.828 16.5859H111.266V22.3254C110.872 22.2378 110.302 22.194 109.908 22.194C106.885 22.194 103.774 24.4285 103.774 27.8021V38.6679H97.6841V17.1116H103.774ZM120.774 17.1116V38.6679H114.684V17.1116H120.774ZM114.114 11.153C114.114 9.09376 115.735 7.47266 117.707 7.47266C119.81 7.47266 121.387 9.09376 121.387 11.153C121.387 13.1684 119.81 14.7457 117.707 14.7457C115.735 14.7457 114.114 13.1684 114.114 11.153ZM142.067 38.6679V36.1705C140.84 38.0545 138.08 39.1937 135.67 39.1937C129.449 39.1937 125.068 34.5056 125.068 27.8898C125.068 21.2739 129.449 16.5859 135.758 16.5859C138.255 16.5859 140.753 17.725 142.067 19.4338V7.99842H148.157V38.6679H142.067ZM131.201 27.8898C131.201 31.2634 133.173 34.0237 136.722 34.0237C139.789 34.0237 142.067 31.3948 142.067 27.8898C142.067 24.3847 139.833 21.7559 136.81 21.7559C133.436 21.7559 131.201 24.2094 131.201 27.8898ZM164.018 42.6987C167.304 42.6987 169.407 40.9024 169.407 37.5725V35.6448C167.961 37.4849 165.551 38.6679 163.142 38.6679C156.964 38.6679 152.451 34.1113 152.451 27.8898C152.451 21.2739 156.832 16.5859 163.142 16.5859C165.639 16.5859 168.005 17.6812 169.407 19.4338V17.1116H175.497V38.0107C175.497 43.6626 170.677 47.9125 164.149 47.9125C160.513 47.9125 156.832 46.6419 154.642 44.6265L157.446 40.3766C159.067 41.7348 161.827 42.6987 164.018 42.6987ZM158.585 27.8898C158.585 31.6577 161.301 33.5855 163.974 33.5855C167.698 33.5855 169.407 30.6938 169.407 27.7583C169.407 24.779 167.742 21.7559 164.149 21.7559C160.819 21.7559 158.585 24.2094 158.585 27.8898ZM199.989 35.6886C197.754 38.0545 194.249 39.1937 191.401 39.1937C184.654 39.1937 179.747 34.3742 179.747 27.8021C179.747 21.4492 184.435 16.5859 190.656 16.5859C196.922 16.5859 201.522 21.2301 201.522 27.4516V29.7299H185.749C186.363 32.3587 188.685 34.1113 191.62 34.1113C193.767 34.1113 195.432 33.235 196.746 31.9206L199.989 35.6886ZM190.788 21.5806C188.466 21.5806 186.494 23.1579 185.881 25.6115H195.783C195.344 23.2017 193.198 21.5806 190.788 21.5806ZM230.439 39.1937C222.684 39.1937 217.339 34.2865 217.339 27.2326V7.99842H223.999V27.2326C223.999 30.7815 226.671 33.2788 230.439 33.2788C234.207 33.2788 236.88 30.7815 236.88 27.2326V7.99842H243.539V27.2326C243.539 34.2865 238.194 39.1937 230.439 39.1937ZM255.457 17.1116V19.6966C256.771 17.8126 259.181 16.5859 261.941 16.5859C266.629 16.5859 269.827 19.8281 269.827 24.6037V38.6679H263.737V25.3486C263.737 23.2455 262.072 21.7559 259.75 21.7559C257.341 21.7559 255.457 23.377 255.457 25.7867V38.6679H249.367V17.1116H255.457ZM281.307 17.1116V38.6679H275.217V17.1116H281.307ZM274.647 11.153C274.647 9.09376 276.268 7.47266 278.24 7.47266C280.343 7.47266 281.92 9.09376 281.92 11.153C281.92 13.1684 280.343 14.7457 278.24 14.7457C276.268 14.7457 274.647 13.1684 274.647 11.153Z" fill="white"/>
</svg>
