<svg width="205" height="205" viewBox="0 0 205 205" fill="none" xmlns="http://www.w3.org/2000/svg">
<g clip-path="url(#clip0_574_9366)">
<path fill-rule="evenodd" clip-rule="evenodd" d="M97.0099 92.6068C98.4348 88.9498 100.185 86.2405 101.665 84.2429C115.888 65.1951 138.308 69.1469 156.669 78.9091C161.591 81.5221 168.251 87.1918 171.269 93.5123C173.391 97.9527 173.752 102.701 170.767 107.014C167.53 111.728 161.442 113.991 154.553 114.657C144.59 115.628 132.955 113.299 126.53 110.936C119.119 108.209 108.144 102.769 98.1464 96.0727C96.9201 100.138 96.1386 105.205 96.4397 111.525C96.5633 114.335 97.4341 117.49 98.806 120.687C103.838 119.031 109.423 118.296 115.382 118.662C120.391 118.978 130.781 121.612 137.786 126.176C142.784 129.438 146.029 133.696 145.07 138.681C143.871 144.87 139.566 147.502 134.267 148.034C126.807 148.786 117.321 145.203 112.704 142.078C107.333 138.439 101.355 131.03 97.6789 123.46C80.969 129.952 71.305 147.417 76.1804 167.05C76.3192 167.635 75.9564 168.236 75.3725 168.394C74.7741 168.537 74.1657 168.167 74.0269 167.582C68.8728 146.808 79.0719 128.305 96.7457 121.416C95.2937 118.009 94.3576 114.63 94.223 111.628C93.896 104.665 94.8158 99.1382 96.2298 94.7657C94.3784 93.4794 92.57 92.1493 90.829 90.78C83.0065 84.6347 76.7162 77.8042 74.6026 71.2624C69.7161 56.1461 77.1361 43.0247 89.0055 34.7685C100.764 26.5955 116.854 23.2345 129.329 27.3824C129.911 27.5762 130.231 28.2101 130.034 28.7876C129.838 29.3653 129.211 29.6822 128.63 29.4883C116.758 25.5406 101.452 28.8028 90.2734 36.5897C79.2048 44.2935 72.1586 56.4829 76.7087 70.5751C78.7322 76.8015 84.7664 83.1947 92.2008 89.0369C93.749 90.2536 95.3546 91.441 97.0099 92.6068ZM99.7407 122.731C104.462 121.216 109.679 120.536 115.253 120.886C120.021 121.185 129.893 123.678 136.581 128.041C140.726 130.744 143.692 134.124 142.887 138.255C141.92 143.307 138.356 145.389 134.04 145.823C127.1 146.541 118.251 143.153 113.943 140.237C108.896 136.822 103.229 129.852 99.7407 122.731ZM98.8855 93.8975C100.262 90.232 101.993 87.5424 103.445 85.5725C116.928 67.5098 138.223 71.6162 155.628 80.8681C160.213 83.2999 166.443 88.564 169.268 94.4698C171.032 98.1708 171.435 102.15 168.942 105.758C166.043 109.983 160.514 111.854 154.346 112.455C144.73 113.393 133.49 111.128 127.293 108.853C119.882 106.125 108.858 100.648 98.8855 93.8975Z" fill="black"/>
<path fill-rule="evenodd" clip-rule="evenodd" d="M74.9644 166.303C75.4144 165.264 76.7206 162.28 76.9303 161.835C77.5256 160.59 77.9997 160.05 78.5434 159.556C78.9856 159.164 79.4974 158.819 80.2315 157.985C80.6313 157.521 81.3446 157.493 81.802 157.901C82.2593 158.308 82.2909 159.002 81.8911 159.467C81.2153 160.212 80.7242 160.623 80.2889 160.979C79.7936 161.395 79.4274 161.738 78.9329 162.793C78.6877 163.304 77.6323 166.294 76.8786 167.555C76.4876 168.214 76.0233 168.54 75.75 168.614C75.3588 168.721 74.8656 168.699 74.3001 168.46C73.5754 168.151 72.5864 167.412 71.46 166.61C70.4031 165.853 69.1914 165.021 67.9103 164.521C66.8302 164.108 65.7074 163.941 64.6072 164.42C64.0485 164.668 63.4008 164.425 63.1512 163.865C62.9017 163.305 63.1515 162.644 63.7102 162.396C65.356 161.653 67.0739 161.825 68.7121 162.456C70.1624 163.017 71.5435 163.938 72.7498 164.805C73.4732 165.319 74.1302 165.814 74.6821 166.154C74.7705 166.21 74.8675 166.256 74.9644 166.303Z" fill="black"/>
</g>
<defs>
<clipPath id="clip0_574_9366">
<rect width="144.198" height="144.198" fill="white" transform="matrix(-0.712816 -0.701351 -0.701351 0.712816 204.625 101.308)"/>
</clipPath>
</defs>
</svg>
