<svg width="667" height="21" viewBox="0 0 667 21" fill="none" xmlns="http://www.w3.org/2000/svg">
<mask id="mask0_574_8928" style="mask-type:alpha" maskUnits="userSpaceOnUse" x="0" y="0" width="667" height="21">
<rect width="667" height="21" fill="#F1A501"/>
</mask>
<g mask="url(#mask0_574_8928)">
<path d="M100.185 -4.44101L101.815 -4.71781L98.6427 -5.11467L100.163 -5.40517C101.688 -5.40252 103.664 -4.96723 104.739 -5.19852C104.87 -5.42245 103.21 -5.49432 102.786 -5.67274C102.411 -5.85561 102.105 -6.03729 101.872 -6.21561C102.702 -6.21368 103.615 -6.17055 104.557 -6.08875C105.823 -5.95514 107.065 -5.89019 108.145 -5.90107C110.355 -5.86499 112.49 -5.90098 114.892 -5.89305L114.093 -6.43199L117.189 -6.30591C117.517 -6.26485 117.908 -6.33088 118.231 -6.28009C120.914 -5.85033 122.049 -6.08452 123.338 -6.27869C123.602 -6.32893 123.92 -6.36646 124.284 -6.39025C127.863 -6.28731 131.091 -5.68493 134.315 -5.37569C134.921 -5.29673 135.503 -5.19538 136.019 -5.07883C137.14 -4.85224 138.388 -4.66724 139.647 -4.54076C140.906 -4.41428 142.137 -4.35035 143.227 -4.35481C145.637 -4.35982 148.36 -4.20995 151.132 -3.9197C151.956 -3.8241 152.781 -3.76104 153.554 -3.73452C154.327 -3.708 155.031 -3.71861 155.621 -3.7657L157.495 -3.45805C158.308 -3.58288 159.338 -3.65137 160.523 -3.65936C161.709 -3.66735 163.025 -3.61467 164.391 -3.50453C165.848 -3.38504 167.327 -3.30449 168.838 -3.17815C171.959 -2.93664 174.997 -2.78893 177.856 -2.73963C182.115 -2.59352 186.276 -2.48054 190.572 -2.29838C193.26 -2.21045 195.879 -2.16209 198.413 -2.15355C201.449 -2.11916 204.732 -1.95266 208.105 -1.6621C207.945 -1.38949 206.466 -1.47003 205.473 -1.47925C202.271 -1.52456 198.994 -1.64198 195.699 -1.73018C194.215 -1.76461 192.771 -1.77765 191.377 -1.76921C189.047 -1.78051 186.59 -1.85315 184.048 -1.98588C180.034 -2.13193 176.148 -2.20214 172.43 -2.19579C172.138 -2.18499 171.871 -2.16586 171.633 -2.1387C171.583 -2.11519 171.574 -2.08553 171.604 -2.05259C171.635 -2.01964 171.706 -1.9845 171.81 -1.95053C171.914 -1.91657 172.047 -1.88493 172.197 -1.85862C172.347 -1.83231 172.509 -1.81221 172.667 -1.80027C174.144 -1.61552 175.73 -1.41709 177.123 -1.38918C177.177 -1.38709 177.234 -1.38233 177.291 -1.37523C177.348 -1.36813 177.402 -1.35887 177.451 -1.34812C180.569 -0.958095 183.132 -1.0241 185.56 -0.960639C189.592 -0.789141 193.479 -0.709032 197.162 -0.721525C197.719 -0.720678 198.32 -0.698382 198.943 -0.655449C202.8 -0.481413 206.407 -0.461948 209.594 -0.597935C210.906 -0.632385 212.126 -0.709726 213.535 -0.71102C214.404 -0.716343 215.16 -0.765697 215.757 -0.856128C216.355 -0.946559 216.783 -1.0762 217.014 -1.23725C217.609 -1.15246 218.213 -1.07689 218.819 -1.01145C219.181 -0.974034 219.528 -0.964098 219.791 -0.983678C220.053 -1.00326 220.21 -1.05089 220.232 -1.11695C220.34 -1.30193 219.514 -1.39483 218.797 -1.47405C219.23 -1.51372 219.717 -1.53706 220.247 -1.54351C223.234 -1.58577 226.437 -1.53589 229.788 -1.39493C232.39 -1.22622 234.466 -1.36354 237.204 -1.12562C237.532 -1.08456 237.802 -1.14482 238.104 -1.15929C238.892 -1.23548 239.873 -1.25261 240.962 -1.20917C242.052 -1.16573 243.217 -1.06304 244.357 -0.909994C245.776 -1.32811 248.843 -0.85045 251.107 -0.807522C251.804 -0.594891 251.004 -0.632273 250.97 -0.573855C250.936 -0.515438 250.97 -0.573869 250.696 -0.608082C248.436 -0.306959 245.338 -0.241297 241.839 -0.420327C241.192 -0.419583 240.575 -0.405866 239.995 -0.379306C239.116 -0.341711 238.125 -0.345466 237.066 -0.390403C235.908 -0.423406 234.845 -0.407731 233.927 -0.344136C233.399 -0.34517 232.952 -0.313312 232.629 -0.251492C232.305 -0.189672 232.115 -0.0998936 232.076 0.00949827C232.428 0.0938305 232.819 0.170994 233.233 0.237928C235.395 0.502209 237.551 0.611603 239.277 0.544583C242.28 0.42911 245.854 0.541794 249.047 0.502374C251.206 0.486404 253.503 0.531892 255.895 0.63799C255.895 0.63799 255.832 0.745088 255.826 0.754825C256.109 0.801194 256.407 0.8384 256.702 0.86431C256.702 0.86431 256.702 0.86431 256.73 0.815628C256.599 0.768879 256.421 0.724901 256.217 0.688784L255.506 0.599827C255.99 0.576677 256.441 0.507754 256.945 0.549865C258.006 0.628101 259.02 0.661131 259.927 0.64699C260.833 0.63285 261.612 0.571822 262.218 0.467573C263.292 0.333967 264.628 0.273208 266.139 0.28922C267.297 0.274633 268.413 0.243282 269.482 0.195327C269.482 0.195327 269.55 0.0785016 270.056 0.0164088C269.577 -0.060178 269.077 -0.122715 268.58 -0.168335C266.416 -0.28231 264.246 -0.38655 262.119 -0.464475C261.336 -0.472891 260.6 -0.459836 259.924 -0.425561C258.053 -0.385452 255.951 -0.442377 253.741 -0.59302C253.741 -0.59302 253.303 -0.647756 253.084 -0.675128C253.705 -0.931946 255.843 -0.674841 256.709 -0.848764C257.235 -0.845597 258.162 -0.823726 258.13 -0.869515C258.058 -0.930615 258.049 -0.987376 258.105 -1.03573C258.16 -1.08408 258.278 -1.12283 258.451 -1.14918C258.624 -1.17554 258.846 -1.18886 259.103 -1.18818C259.359 -1.18751 259.644 -1.17284 259.935 -1.14526C262.37 -0.99605 264.663 -0.954556 266.674 -1.02332C267.437 -1.02199 268.291 -0.977769 269.048 -0.966705C269.511 -0.953378 269.934 -0.96079 270.294 -0.988531C272.122 -1.19283 274.582 -1.20775 277.305 -1.03105C278.621 -0.96752 279.85 -0.959025 280.93 -1.006C281.698 -1.01441 282.024 -0.869155 282.571 -0.800729L284.893 -0.656484L281.911 -0.475748C282.548 -0.061548 283.055 0.0750254 284.097 0.10083C285.616 0.139798 287.096 0.157405 288.528 0.153534C289.587 0.150132 290.461 0.0609303 291.894 0.219365C292.148 0.245207 292.391 0.253571 292.585 0.243053C294.264 0.102399 296.285 0.0701193 298.511 0.148417C299.664 -0.114972 301.627 0.141111 303.444 0.347443C304.03 0.149039 302.968 0.0579676 302.334 -0.0630867C303.853 -0.0506953 305.384 -0.0577731 306.952 -0.0288033C307.424 -0.0393479 307.963 -0.0213099 308.527 0.0238991C309.091 0.0691072 309.665 0.140247 310.204 0.231752C310.467 0.290877 310.783 0.335375 311.088 0.356008C311.393 0.37664 311.663 0.37183 311.842 0.342567C312.656 0.25627 313.959 0.335751 314.632 0.189981C314.871 0.156455 315.213 0.151777 315.596 0.176758C315.98 0.201742 316.38 0.254772 316.724 0.326339C316.347 0.348667 316.011 0.383832 315.723 0.431052C314.694 0.584449 315.072 0.840758 316.38 1.21339C318.388 1.1929 320.439 1.19872 322.301 1.12849C323.338 1.06544 324.609 1.08515 325.971 1.1854C327.333 1.28565 328.732 1.46245 330.011 1.69594C330.473 1.78573 331.001 1.84791 331.488 1.87015C331.975 1.89239 332.387 1.87305 332.641 1.81597C332.799 1.74995 332.848 1.6664 332.784 1.57256L331.471 1.40835C331.471 1.40835 331.523 1.32073 331.534 1.30125L333.421 1.28653C334.42 1.28602 335.461 1.31183 336.405 1.30448C337.791 1.25557 339.373 1.28283 341.055 1.38456C342.605 1.48887 344.129 1.56771 345.613 1.6204C347.049 1.67463 348.09 1.50175 349.456 1.47414C350.489 1.45333 351.626 1.47557 352.823 1.53999C354.89 1.65424 356.787 1.65445 358.341 1.5406C360.153 2.15402 361.034 2.25376 362.716 2.088L363.507 2.04065L363.724 2.17222L364.328 2.14328C365.458 2.11752 366.589 2.09176 367.769 2.08257C369.409 2.13949 371.18 2.29265 372.909 2.52708C373.237 2.56814 373.684 2.70763 373.972 2.81684C374.26 2.92604 374.889 3.2555 375.35 3.46997C374.847 3.62653 374.29 3.77625 373.89 3.95623C373.85 3.98698 373.854 4.02365 373.902 4.06328C373.95 4.10292 374.039 4.14442 374.164 4.18445C374.289 4.22448 374.446 4.26192 374.621 4.29376C374.797 4.32561 374.987 4.35097 375.175 4.36781C375.543 4.40411 375.906 4.42831 376.249 4.43941C377.939 4.45855 379.557 4.44432 381.088 4.39686C381.647 4.3299 382.412 4.32353 383.263 4.37879C384.113 4.43405 384.999 4.54777 385.782 4.70191C387.785 4.60937 390.112 4.63671 392.604 4.78202C395.239 4.69364 398.422 4.87236 400.884 4.67873C400.827 4.77609 401.08 4.94372 401.435 5.0403C401.995 5.18699 402.63 5.32295 403.312 5.4424L408.518 5.67563C408.713 5.79555 408.956 5.91696 409.245 6.03826C409.442 6.13407 409.787 6.22782 410.205 6.29965C410.623 6.37147 411.082 6.41573 411.485 6.42302C412.521 6.45855 413.389 6.37909 414.624 6.57542C412.722 6.761 410.157 6.73635 407.385 6.50584C404.781 6.33054 402.276 6.24292 399.964 6.24626C399.201 6.24493 398.197 6.25517 397.959 6.36121C397.431 6.66092 396.05 6.61354 394.438 6.55826C393.173 6.49774 392.016 6.50453 391.065 6.57808C390.113 6.65162 389.394 6.78982 388.965 6.9813C388.856 7.16629 389.116 7.32418 390.227 7.43183L394.847 7.86347C395.528 7.80796 396.174 7.74228 396.782 7.66666C397.807 7.56623 399.073 7.53867 400.481 7.58611C401.889 7.63355 403.401 7.75472 404.9 7.9402C405.665 8.036 406.431 8.13179 406.986 8.08627C407.473 8.03399 407.922 7.97138 408.329 7.89893C408.411 7.85038 408.444 7.79449 408.426 7.73341C408.721 7.76181 409.016 7.79873 409.301 7.8429C411.582 8.35817 413.349 8.34925 414.953 8.2156C415.388 8.17587 415.718 8.11272 416.158 8.06326C416.598 8.01379 416.753 7.94959 417.153 7.96828C420.342 8.13727 421.26 7.57284 423.947 7.59551C424.079 7.57346 424.16 7.54049 424.184 7.49966C424.208 7.45883 424.174 7.41144 424.085 7.36184C423.895 7.31706 423.675 7.27856 423.446 7.24986C423.216 7.22116 422.985 7.2032 422.772 7.19762C421.535 7.12519 420.443 7.14739 419.682 7.26046C419.143 7.30665 418.573 7.34346 417.974 7.37069L415.283 6.55331C417.89 6.62823 420.355 6.62774 422.622 6.55185C423.117 6.50923 423.955 6.58266 424.651 6.59662L429.772 6.67301C430.826 6.67935 431.723 6.55121 433.191 6.84991C433.191 6.84991 434.161 6.89807 434.42 6.85728C434.679 6.8165 435.825 6.56285 436.509 6.39761C437.304 6.44472 438.403 6.57185 438.898 6.52922C439.762 6.42454 440.51 6.29033 441.129 6.12901L444.223 6.35931C444.219 6.56388 444.106 6.75633 443.886 6.93374C443.645 7.10483 443.653 7.31022 443.91 7.53309C444.167 7.75596 444.665 7.98999 445.364 8.21607L448.419 9.41343C448.918 9.49361 449.449 9.54758 449.941 9.56802C450.433 9.58846 450.862 9.57437 451.17 9.52766C452.484 9.389 453.957 9.28062 455.271 9.14196C456.967 9.35408 456.531 9.69669 457.764 9.99722L461.756 10.4967C462.365 10.9596 462.986 11.403 461.134 11.558C460.765 11.5851 461.014 11.7624 460.677 11.8353C462.117 12.1827 463.7 12.2867 465.16 12.5006C465.735 12.6545 466.217 12.8174 466.58 12.9814C466.98 13.2284 467.79 13.4806 468.835 13.6838C469.88 13.8869 471.077 14.0245 472.167 14.067C473.995 14.197 475.867 14.3923 477.699 14.6441C478.325 14.7317 478.968 14.7955 479.585 14.8312C480.202 14.8669 480.778 14.8738 481.276 14.8513C483.048 14.8116 484.549 14.6753 485.679 14.4511C486.797 14.2608 488.304 14.1692 490.063 14.1843C493.071 14.5607 493.677 15.1278 495.498 15.6272L492.354 15.6832C492.239 15.878 492.447 16.1235 491.158 16.119C489.87 16.1145 490.523 16.3008 490.941 16.489C491.089 16.5836 491.376 16.681 491.755 16.7646C492.134 16.8481 492.581 16.9128 493.021 16.9476L495.697 17.1885C496.647 17.2801 497.565 17.3193 498.352 17.3016C499.14 17.2839 499.765 17.2101 500.159 17.0883C500.612 16.9726 501.238 16.8944 501.997 16.8583C502.964 16.764 503.76 16.6236 504.354 16.4426L508.133 16.7063C508.294 16.5244 508.813 16.3969 509.603 16.3453C510.393 16.2936 511.405 16.3211 512.468 16.423L515.015 16.5849C517.846 16.7615 518.468 16.7033 519.297 16.1905L515.901 15.2744C516.395 15.0331 516.871 14.821 517.348 14.6089C516.502 14.3071 515.373 14.0217 514.076 13.7816C512.866 13.5236 511.621 13.2737 510.347 13.0329C508.965 12.7868 507.505 12.5729 505.789 12.2955C505.49 12.2057 505.055 12.0468 504.499 11.8936C503.942 11.7448 503.362 11.5989 502.759 11.4565C502.873 11.2618 502.976 11.0866 502.757 10.8605C503.813 10.9326 504.905 11.0588 505.934 11.2276C506.962 11.3964 507.895 11.6025 508.647 11.8274C508.774 11.8673 508.929 11.9047 509.102 11.9372C509.276 11.9698 509.463 11.9966 509.652 12.0158C511.509 12.154 512.396 12.4427 513.304 12.7966C513.915 12.9775 514.703 13.1382 515.558 13.2564C517.199 13.4616 518.806 13.7253 520.375 13.953C520.855 14.0288 521.354 14.0913 521.851 14.1377C523.492 14.2854 525.142 14.4919 526.719 14.7467C527.234 14.8115 527.728 14.8972 528.16 14.9967C528.592 15.0962 528.949 15.2065 529.202 15.3186C528.811 15.4413 528.601 15.5963 528.582 15.7741C528.514 15.8909 529.666 16.1291 530.21 16.3017C530.755 16.4743 529.687 16.393 529.324 16.4104C527.837 16.4437 527.561 16.5137 528.452 16.8969C528.749 17.0174 528.947 17.1379 529.032 17.251C529.117 17.3642 529.088 17.4675 528.947 17.5545C528.735 17.9147 528.092 18.2105 527.651 18.5629C528.336 18.795 529.482 19.0428 529.607 19.3302C529.667 19.3939 529.794 19.4615 529.979 19.5279C530.163 19.5944 530.4 19.6581 530.674 19.7144C531.394 19.836 532.048 19.9815 532.587 20.1394C533.125 20.2974 533.533 20.4637 533.779 20.6255C533.86 20.6924 534.054 20.7633 534.323 20.8241C534.592 20.885 534.916 20.9311 535.231 20.9534C535.606 20.9807 535.942 20.9771 536.17 20.9433C536.397 20.9095 536.498 20.8481 536.452 20.7718C536.462 20.6285 536.412 20.479 536.304 20.3247C536.367 20.2176 536.43 20.1105 536.181 19.9332C537.302 19.9979 538.479 20.1276 539.584 20.3082C540.689 20.4889 541.68 20.7135 542.449 20.9577C543.299 21.2103 544.083 21.4756 545.025 21.7711C544.831 22.1021 544.831 22.1021 546.836 22.6874L557.471 22.9728L559.65 23.3605C561.683 23.6984 562.166 23.6752 563.443 23.5005L564.302 23.3363C566.107 23.5621 568.186 23.8221 569.314 23.399C569.681 23.6748 569.92 23.7674 569.837 23.8093C569.298 24.2163 568.362 24.5616 567.065 24.8316C566.734 24.8947 566.502 24.991 566.116 25.0473C564.874 25.3651 564.586 25.8562 565.311 26.4201C565.671 26.6697 566.193 26.9252 566.862 27.1785C565.883 27.53 564.587 27.8213 563.008 28.0445C561.667 28.2171 560.563 28.4483 559.728 28.7315C558.978 29.017 557.854 29.2316 556.422 29.363C555.695 29.4188 555.165 29.5291 554.884 29.6827C554.801 30.0985 554.993 30.5437 555.456 31.0084C555.544 31.1498 555.792 31.3025 556.182 31.4546C556.571 31.6067 557.091 31.754 557.702 31.885C557.702 31.885 557.995 31.9844 558.137 32.0439C558.254 32.5475 557.814 32.9913 556.845 33.3454C556.686 33.4459 556.361 33.5185 555.905 33.5553C555.449 33.5922 554.879 33.5919 554.256 33.5546C552.941 33.4945 551.713 33.4872 550.441 33.4535C549.07 33.4058 547.863 33.4434 546.946 33.5622C546.029 33.6811 545.436 33.8768 545.23 34.1289C545.217 34.2002 545.177 34.2686 545.11 34.3333C545.072 34.3667 545.051 34.4026 545.048 34.4404L547.968 35.2657L544.664 35.5943C544.47 35.9253 546.056 36.1238 546.851 36.3695L546.36 36.5066C545.727 36.5843 544.875 36.4358 544.103 36.3498L543.338 36.254L543.246 36.4097C542.77 36.6218 541.031 36.3834 540.353 36.5389C539.674 36.6944 540.158 36.8699 541.175 37.0389C541.881 37.1645 542.64 37.2646 543.394 37.3318C544.147 37.3989 544.877 37.4313 545.526 37.4266C545.915 37.4099 546.236 37.372 546.473 37.315C547.844 37.0724 549.359 36.8639 551.007 36.6909C552.27 36.5356 553.852 36.4695 555.641 36.4973C556.166 36.4856 556.799 36.5224 557.43 36.6012C558.06 36.6801 558.646 36.7959 559.087 36.9284L560.013 36.9502C560.013 36.9502 560.52 37.0868 560.448 37.1092C560.096 37.5138 560.506 38.0085 561.617 38.5199L560.651 38.5662C559.269 38.5188 560.145 38.827 559.939 38.9788C558.957 38.9501 557.682 38.822 557.217 39.0146L556.521 39.0006L556.794 39.0348L557.125 38.9717L558.424 39.2596C557.808 39.308 557.363 39.3672 556.819 39.3932C556.519 39.4159 556.28 39.4559 556.116 39.5109C555.953 39.5659 555.868 39.6347 555.868 39.7132C555.869 39.834 555.708 39.9356 555.398 40.0085C555.088 40.0813 554.64 40.1228 554.097 40.1292C553.45 40.1318 553.079 40.2631 552.7 40.3097L554.349 41.1013C554.349 41.1013 553.529 40.9986 553.975 41.1381L554.032 41.0407L555.031 41.2389C555.752 41.4126 556.255 41.4547 556.68 41.3302C557.106 41.2057 557.009 41.3713 557.213 41.3237C557.138 41.4502 556.676 41.5386 556.279 41.6144C555.82 41.6739 555.303 41.7177 554.734 41.7452C555.758 42.3017 555.807 42.3183 554.312 42.4656C552.816 42.613 553.332 42.8343 552.081 42.8659C550.829 42.8974 552.252 43.274 553.09 43.3474C553.711 43.3957 554.344 43.4709 554.946 43.5679C555.548 43.6648 556.104 43.7812 556.576 43.909L556.325 44.3374C555.957 44.302 555.588 44.2558 555.231 44.2006C554.019 43.9653 552.916 43.7437 551.838 43.8805L552.351 44.2061L548.587 44.0173C548.685 44.2613 549.258 44.5391 550.187 44.7923C550.047 44.9314 549.961 45.0777 549.93 45.2304C549.867 45.3375 549.496 45.2702 549.254 45.2817C548.392 45.2996 547.685 45.3722 547.194 45.4931C546.704 45.6139 546.445 45.7793 546.441 45.9748C546.343 46.1403 547.669 46.4838 548.497 46.4725C550.566 46.5055 552.803 46.6328 555.087 46.8475C556.48 46.8755 556.677 46.4402 558.968 46.7373C559.013 46.9383 558.72 47.101 558.132 47.2009C557.544 47.3008 556.693 47.3324 555.708 47.2909C556.268 47.7372 559.37 47.8536 559.507 48.3202C558.735 48.2872 557.909 48.2097 557.111 48.0952C556.313 47.9807 555.571 47.8333 554.958 47.6675C554.826 47.6266 554.66 47.589 554.476 47.558C554.291 47.527 554.094 47.5036 553.903 47.4902C553.712 47.4767 553.533 47.4734 553.382 47.4808C553.232 47.4881 553.114 47.5058 553.042 47.5322C553.471 47.7009 553.944 47.8959 554.483 48.0782C555.021 48.2606 555.151 48.3395 555.54 48.3777C558.438 48.7404 559.817 49.3935 562.324 49.8222C562.981 49.9043 563.062 50.1654 562.493 50.1359C561.951 50.1064 561.46 50.1102 561.075 50.147C560.691 50.1838 560.428 50.2521 560.316 50.3443C559.895 50.4517 559.371 50.5373 558.757 50.5987C561.329 51.269 564.396 51.8612 567.669 52.3198C568.289 52.4104 568.936 52.4657 569.514 52.4775C571.341 52.4781 573.28 52.5313 575.292 52.6359C576.005 52.6645 576.665 52.6618 577.234 52.6281C579.101 52.5481 580.583 52.7231 581.938 53.2166L584.179 53.9986C584.105 54.1252 583.729 54.2663 583.439 54.4599L585.19 54.8776L598.553 53.9157L601.236 54.847L605.082 54.7953C605.377 54.8221 605.673 54.8592 605.957 54.9047C606.735 55.1797 607.343 55.4439 608.188 55.7063C609.032 55.9687 610.539 56.0005 611.591 56.3097C612.642 56.6189 613.695 56.6253 614.997 56.809C615.119 57.0483 614.993 57.2638 614.625 57.4418C614.505 57.6463 613.844 57.7726 613.73 57.9673C613.742 58.1641 613.497 58.3312 613.015 58.4534C612.533 58.5756 611.831 58.6491 610.971 58.6672C608.563 59.0862 605.66 59.3846 602.349 59.5534C602.058 59.5656 601.817 59.5939 601.641 59.6366C601.464 59.6792 601.356 59.7352 601.323 59.8012C601.328 59.9922 601.107 60.1573 600.677 60.2843C600.247 60.4113 599.618 60.4971 598.837 60.5354C598.63 60.543 598.473 60.567 598.386 60.6043C598.09 60.6284 597.874 60.6744 597.76 60.7379C597.645 60.8015 597.636 60.8805 597.733 60.9672C597.829 61.0539 598.029 61.1454 598.312 61.2329C598.595 61.3204 598.952 61.4009 599.348 61.4666C599.923 61.5725 600.51 61.6739 601.107 61.7703C601.073 61.8287 600.48 61.8382 600.567 61.8908C600.801 62.0588 600.855 62.2162 600.725 62.3505C600.595 62.4849 600.285 62.5924 599.819 62.6647L603.013 64.0258C604.951 64.2143 606.853 64.534 608.357 64.9242C608.358 64.9881 608.272 65.0417 608.106 65.0796C607.939 65.1174 607.699 65.1383 607.408 65.14C606.629 65.1679 605.892 65.222 605.052 65.2528C604.539 65.2758 604.111 65.3264 603.795 65.4017C603.479 65.4769 603.28 65.5753 603.21 65.6912L605.085 66.1975C604.484 66.3209 604.039 66.3801 603.642 66.4559C603.867 66.615 604.253 66.7796 604.772 66.9369C605.29 67.0942 605.927 67.24 606.632 67.363C606.821 67.3884 607.014 67.4069 607.199 67.4175C607.385 67.4282 607.559 67.4306 607.711 67.4249C609.164 67.2512 610.862 67.5578 612.512 67.8478C614.162 68.1378 615.058 68.3126 616.276 68.5381L618.606 68.5684C619.196 68.6752 619.722 68.8007 620.143 68.935C620.564 69.0693 620.867 69.2086 621.029 69.3418C620.903 69.556 619.798 69.4386 619.139 69.4607C617.576 69.594 615.522 69.5656 613.316 69.3801C612.769 69.3117 612.208 69.3669 611.676 69.3735C610.528 69.4001 609.424 69.4435 608.371 69.5034C607.677 69.5592 607.028 69.6282 606.429 69.71C606.269 69.9826 608.788 70.1932 607.358 70.3279C607.851 70.3894 608.035 70.4752 608.288 70.4442C609.91 70.6212 611.507 70.7087 612.895 70.6966C615.56 70.659 618.585 70.7832 621.724 71.0591C625.112 71.3449 628.362 71.4649 631.206 71.4092C632.289 71.406 633.499 71.4645 634.745 71.5803C636.216 71.7408 637.677 71.8417 639.033 71.8764C639.482 71.8777 639.982 71.905 640.493 71.9561C641.004 72.0073 641.51 72.0809 641.972 72.1709C641.932 72.2391 641.492 72.2886 641.59 72.3217C642.993 72.8317 643.562 73.3627 645.722 73.8838C647.199 74.0685 648.895 74.2807 649.86 74.0357C650.826 73.7907 650.48 73.5802 648.558 72.9531C648.975 72.9441 649.478 72.9734 649.977 73.0359C650.477 73.0984 650.943 73.1902 651.293 73.2952L652.955 73.7644L654.453 74.2131C654.322 74.437 654.219 74.6123 654.11 74.7973C653.939 74.9938 654.127 75.2329 654.648 75.4812C654.963 75.6168 655.237 75.7523 655.467 75.8867C656.404 76.4242 656.675 76.9322 656.25 77.3538C655.437 77.9599 654.304 78.5176 652.865 79.0205C651.346 79.5096 650.514 80.1267 649.262 80.6598C648.623 80.9025 647.847 81.1201 646.943 81.3102C645.227 81.7331 643.347 82.1354 641.625 82.568C639.904 83.0006 637.96 83.3113 636.048 83.6678C633.202 84.091 630.125 84.4564 626.835 84.7621C624.799 85.03 622.709 85.291 620.825 85.5988C618.601 85.9458 615.988 86.195 613.052 86.3402C610.458 86.514 608.141 86.771 606.144 87.1064C605.935 87.1427 605.77 87.1888 605.653 87.2435C605.293 87.5855 604.286 87.8265 602.784 87.9297C602.876 88.0298 602.992 88.1316 603.134 88.2347C603.342 88.3575 603.386 88.4724 603.258 88.5646C603.131 88.6567 602.839 88.7219 602.42 88.7515C601.219 88.8362 600.221 88.9801 599.47 89.1767C599.194 89.226 599.023 89.2979 598.971 89.386C598.919 89.4742 598.988 89.5761 599.173 89.683C599.336 89.793 599.348 89.8942 599.207 89.9734C599.066 90.0527 598.779 90.1065 598.383 90.1277C597.367 90.2318 596.278 90.3155 595.125 90.3784C592.67 90.5171 589.815 90.5154 586.732 90.3735C586.404 90.3325 586.074 90.3957 585.691 90.3478C583.51 90.1888 581.486 90.1642 579.861 90.2769C577.957 90.3208 575.966 90.3121 573.958 90.3326C571.057 90.3188 568.38 90.4024 566.004 90.5811C563.287 90.4084 561.76 90.7087 559.467 90.7144C557.35 90.7453 555.344 90.8192 553.467 90.9356C550.441 91.09 547.426 91.225 544.443 91.4057C541.645 91.4919 539.069 91.6565 536.758 91.8969C535.872 92.0055 534.269 91.8363 533.666 92.0639C533.062 92.2916 531.845 92.2647 530.862 92.3402L527.758 92.5267C527.224 92.5711 526.637 92.5992 526.006 92.6106C523.121 92.6259 521.122 92.9298 518.444 92.9918L518.17 92.9576C513.415 93.4094 507.973 93.6573 502.004 93.6941C498.518 93.8328 494.706 93.8261 491.006 93.9276C490.124 94.1308 488.04 93.8805 486.933 94.066C485.826 94.2515 484.019 94.1299 482.592 94.1604C481.165 94.1909 479.77 94.2672 478.245 94.2645C476.921 94.2654 475.803 94.3482 474.992 94.5055C473.142 94.7655 470.887 94.9184 468.328 94.9572C464.942 95.0248 461.74 95.1782 458.296 95.1444C458.345 95.3339 458.134 95.4951 457.684 95.6115C457.234 95.7278 456.561 95.7951 455.735 95.8065C452.053 95.8788 448.713 96.0671 444.982 96.1229L443.984 96.1234L432.824 96.2321C429.817 96.2531 426.92 96.2878 423.854 96.3117C422.705 96.168 422.677 96.4154 421.883 96.3683C421.661 96.2464 421.399 96.1927 421.008 96.2588L420.922 96.4048L408.186 96.5986C403.199 96.7402 397.954 96.7827 392.495 96.7257C391.2 96.74 389.991 96.7884 388.888 96.8701C387.865 96.8999 386.799 96.9131 385.694 96.9095C384.201 96.8727 382.742 96.8542 381.324 96.8539C377.592 96.9097 373.676 96.8796 369.591 96.8387C365.505 96.7979 362.41 96.8705 358.773 96.8649C356.31 96.8599 353.859 96.8354 351.309 96.7777C350.092 96.7508 348.593 96.605 347.332 96.5518C346.072 96.4987 345.66 96.4994 345.494 96.5831C344.945 96.8176 343.567 96.666 342.465 96.6431C340.315 96.6041 340.01 96.5241 339.426 95.9181L342.064 95.7255C342.71 95.6633 343.523 95.6524 344.424 95.6938C345.325 95.7351 346.285 95.8274 347.209 95.9616C347.573 96.0192 347.953 96.0646 348.328 96.0954C348.703 96.1261 349.065 96.1416 349.393 96.1408C352.055 96.108 354.678 96.0391 357.236 95.9828L357.61 95.946L357.633 95.4055C357.295 95.3524 356.944 95.3085 356.594 95.2755L343.766 94.9248C340.823 94.8387 337.766 94.6444 334.877 94.5652C331.988 94.4859 330.432 94.4375 328.19 94.3556C327.244 94.3089 326.28 94.2477 325.304 94.1722C325.36 94.1201 325.393 94.0648 325.401 94.0066C325.452 93.919 325.521 93.8022 325.106 93.7085C324.654 93.5762 324.049 93.4633 323.413 93.3922C322.815 93.3452 322.236 93.3186 321.698 93.3135C319.096 93.2682 316.125 92.9827 313.417 92.5178L312.472 92.8281C308.406 92.6538 304.279 92.4824 300.032 92.3168C299.181 92.2717 298.289 92.185 297.421 92.0634C296.491 91.9471 295.636 91.7042 294.657 91.5713C293.69 91.4756 292.729 91.401 291.793 91.3489C292.047 91.269 292.381 91.2052 292.785 91.1594C293.183 91.1434 293.473 91.0935 293.613 91.0171C293.753 90.9406 293.735 90.8415 293.563 90.7342C293.26 90.55 293.127 90.3766 293.786 90.3545C294.395 90.3125 294.83 90.2216 295.041 90.0924C295.252 89.9633 295.23 89.8013 294.977 89.6256C294.866 89.5229 294.788 89.4223 294.742 89.3246L294.469 89.2903C293.567 88.9267 291.765 88.7953 290.472 88.4977C289.862 88.4114 289.23 88.3618 288.676 88.3566C287.246 88.2927 285.853 88.2647 284.374 88.1842C283.668 88.1472 282.929 88.0796 282.201 87.9855C281.162 87.8555 281.053 87.8418 280.449 87.3692C281.386 87.3774 282.129 87.3068 282.552 87.1693C282.975 87.0318 283.052 86.8358 282.771 86.6145C281.998 86.1311 281.181 85.6214 277.684 85.2779C278.824 85.261 279.922 85.2274 280.972 85.1772C281.278 85.1664 281.506 85.1309 281.628 85.0754C281.749 85.02 281.757 84.9472 281.651 84.8669C281.545 84.7865 281.33 84.7025 281.034 84.6259C280.738 84.5494 280.376 84.484 279.997 84.4386C278.151 84.1651 276.225 83.9821 274.436 83.9101C272.928 83.8782 271.567 83.8961 269.806 83.8953L267.728 83.6352C267.762 83.5768 267.457 83.4968 267.534 83.4647C268.063 83.165 268.645 82.8721 269.245 82.5501C268.287 82.3761 267.457 82.1662 266.85 81.9442C266.243 81.7223 265.884 81.4973 265.813 81.2951C265.762 81.2341 265.775 81.1785 265.853 81.1322C265.931 81.086 266.071 81.0502 266.264 81.0275C266.811 80.9884 267.233 80.9136 267.498 80.8091C267.763 80.7045 267.864 80.5729 267.792 80.4244L266.176 79.8773C261.309 79.4869 256.53 79.208 251.927 79.0458L247.772 78.9231C247.271 78.7768 247.426 78.7126 247.898 78.7089C248.37 78.7052 249.696 78.7458 250.623 78.7676C251.423 78.7963 252.134 78.7775 252.686 78.7129C253.238 78.6483 253.613 78.5402 253.775 78.399L252.379 77.7751C252.448 77.6582 252.545 77.4927 253.302 77.5038C253.819 77.4902 254.2 77.4314 254.383 77.3368C254.566 77.2422 254.542 77.1173 254.312 76.9822C254.278 76.8845 254.33 76.7956 254.467 76.7194C255.586 76.7131 256.699 76.7165 257.715 76.6868C258.188 76.6769 258.587 76.6407 258.886 76.5807C259.184 76.5207 259.375 76.4382 259.445 76.3389C259.482 76.242 259.392 76.1316 259.185 76.0166C258.977 75.9017 258.656 75.7854 258.248 75.6771C256.657 75.5432 255.201 75.5414 254.2 75.6723C253.843 75.7749 253.27 75.8309 252.556 75.833C251.842 75.8351 251.021 75.7832 250.201 75.6841C249.262 75.5698 248.325 75.5196 247.558 75.5425C246.791 75.5653 246.245 75.6598 246.018 75.8088C245.054 75.7509 244.2 75.7066 243.356 75.6429C242.362 75.5626 241.421 75.5389 240.637 75.5745C239.382 75.5996 238.031 75.5849 236.612 75.5307C232.523 75.3954 228.428 75.2698 224.469 75.2134C223.422 75.1974 222.516 75.2408 221.48 75.2052C220.444 75.1697 219.624 75.2657 218.329 75.0723C218.082 75.0422 217.834 75.0229 217.604 75.0159C217.373 75.0089 217.167 75.0143 217.002 75.0318C214.727 75.1847 212.06 75.2063 209.157 75.0953C205.181 75.0682 201.057 74.9912 197.075 74.9738C195.907 74.9888 194.804 75.029 193.776 75.094C192.994 75.1333 192.174 75.1599 191.322 75.1737C190.669 75.1861 190.044 75.1497 190.155 75.3621C190.265 75.5745 189.286 75.4416 188.722 75.4023C186.784 75.2994 184.803 75.16 182.802 74.9857C180.83 74.7963 178.898 74.6861 177.121 74.6617C175.838 74.6475 174.515 74.7014 172.865 74.4114C172.928 74.3043 172.991 74.1972 173.35 74.0853C172.004 73.7776 170.469 73.5129 168.871 73.313C167.274 73.1131 165.659 72.9838 164.161 72.9358L162.096 72.3534C161.587 72.285 161.068 72.2352 160.57 72.207C160.072 72.1788 159.605 72.1728 159.198 72.1894C158.883 72.1979 158.5 72.1762 158.118 72.1285C157.736 72.0807 157.382 72.01 157.119 71.9294C156.727 71.8268 156.248 71.7384 155.742 71.6751C155.236 71.6118 154.726 71.5765 154.275 71.5736C152.856 71.5102 151.341 71.364 149.886 71.1499C149.508 71.0243 149.272 70.8946 149.205 70.7767C149.139 70.6588 149.245 70.558 149.512 70.4865C149.942 70.3603 150.183 70.1995 150.222 70.0139C150.26 69.8282 150.094 69.6216 149.735 69.4065C149.551 69.2745 149.489 69.1495 149.554 69.039C149.619 68.9286 149.808 68.835 150.112 68.764C151.244 68.4353 150.941 68.2511 149.089 67.7058C148.788 67.6149 148.425 67.53 148.024 67.4563C147.622 67.3827 147.191 67.3221 146.756 67.2782C145.738 67.1893 144.733 67.1232 143.76 67.0811C143.214 67.0126 142.653 67.0679 142.022 67.0413C138.871 66.9083 138.41 66.6939 137.39 66.2318L136.646 65.8984C135.267 65.6283 133.758 65.404 132.229 65.2416C130.7 65.0792 129.189 64.9828 127.804 64.9593C127.253 64.9576 126.62 64.9114 126.002 64.828C123.99 64.5729 121.952 64.3963 120.024 64.31C118.822 64.2615 117.527 64.1358 116.294 63.9481C115.06 63.7605 113.941 63.5188 113.071 63.2521C112.289 63.0118 111.267 62.7962 110.145 62.6352C108.833 62.471 108.711 62.2781 109.444 62.1295C110.177 61.9808 111.405 61.7895 112.495 61.6332C112.874 61.5801 113.109 61.4937 113.173 61.3837C113.238 61.2737 113.13 61.1443 112.86 61.0101C112.687 60.7804 112.657 60.5624 112.771 60.3615C112.832 60.2779 112.79 60.1822 112.648 60.0806C112.506 59.9791 112.268 59.8741 111.949 59.7728C111.63 59.6715 111.238 59.5762 110.8 59.4934C110.361 59.4105 109.886 59.342 109.406 59.2925C107.382 59.0393 105.413 58.793 103.35 58.608C102.485 58.5208 101.621 58.4127 100.779 58.2864C99.0558 57.974 97.2122 57.7149 95.3554 57.5242C94.4741 57.439 93.6125 57.2899 92.9571 57.1092C90.8897 56.6225 88.9847 56.1109 87.2767 55.5834C86.865 55.4198 86.3264 55.2602 85.6945 55.1146C85.0627 54.969 84.3512 54.8406 83.6048 54.7374C83.0032 54.6621 82.5134 54.4963 82.0498 54.386C81.7128 54.1307 81.6768 53.8945 81.9452 53.6995C82.2136 53.5046 82.7776 53.3574 83.5842 53.2716C84.3491 53.1688 85.0649 53.0493 85.7261 52.923C86.5231 52.8209 87.4706 52.7595 88.5334 52.7412C89.7922 52.6864 90.7229 52.5297 91.2044 52.2916C87.7586 51.8605 84.4818 51.2415 81.4615 51.3862L79.1666 50.9946C79.258 50.8388 79.338 50.7025 79.4123 50.5759C79.9581 50.3455 80.1285 50.055 79.9093 49.7289C79.7284 49.5711 79.7448 49.4276 79.9565 49.3128C80.1682 49.1979 80.5678 49.1159 81.1149 49.075C84.3556 48.6548 88.1032 48.3712 91.1423 47.8944C92.0952 47.8049 93.2106 47.7643 94.4417 47.7742C95.6327 47.7456 95.5829 47.5303 94.2123 47.2648C93.443 47.126 92.6588 46.993 91.8628 46.8663C88.3527 46.8452 86.9227 47.4815 82.917 47.3043L81.0605 46.4659C80.5584 46.453 80.0711 46.4478 79.6017 46.4506L72.8852 46.7913C72.3258 46.8084 71.8903 46.8666 71.6282 46.9595C71.3662 47.0523 71.2881 47.176 71.4028 47.3165C71.4483 47.4884 71.3558 47.6461 71.1286 47.7838C70.9822 47.8803 71.0759 48.0085 71.3892 48.1404C72.0954 48.4378 71.1893 48.4812 70.6171 48.5559C70.4708 48.5632 70.3021 48.5624 70.1209 48.5536C69.9396 48.5448 69.7493 48.5282 69.5611 48.5046C69.3728 48.4811 69.1903 48.4511 69.0242 48.4164C68.8581 48.3818 68.7117 48.3431 68.5934 48.3027C67.5852 48.0199 66.7034 47.7214 65.7124 47.4093C66.416 47.1107 65.5881 46.6204 66.686 46.3502C66.8088 46.2962 66.8579 46.2304 66.8304 46.1569C66.8029 46.0834 66.6992 46.0036 66.5259 45.9226C66.0788 45.7133 65.8659 45.5094 65.9086 45.3312C65.9513 45.1531 66.248 45.007 66.769 44.9079L66.8318 44.8008C65.4579 44.4408 65.822 44.1205 65.2823 43.7395L63.9606 43.4905C60.6724 42.8911 60.6667 42.9008 57.8357 42.9229C57.2651 42.6947 57.9901 42.66 58.5338 42.634L63.0871 42.378C66.0642 42.207 69.1277 42.0886 72.4534 42.0239C75.779 41.9593 79.4866 41.7438 82.9241 41.5886C83.0979 41.5766 83.2309 41.5528 83.3118 41.5193C83.3928 41.4858 83.4193 41.4435 83.3894 41.396C83.2527 41.3446 83.0739 41.295 82.866 41.2509C82.6582 41.2068 82.4266 41.1693 82.1885 41.1412C81.0946 41.0044 79.9722 40.9162 78.8065 40.8017L76.6334 40.603L75.9648 40.3417C75.5297 40.1828 75.2324 39.9888 74.6536 39.8746C74.1767 39.7894 73.6589 39.7248 73.1542 39.6873C72.6496 39.6499 72.1765 39.6412 71.7844 39.6619C70.6971 39.714 69.7134 39.7895 68.675 39.8582C67.6367 39.9269 67.0644 40.0016 66.1641 40.0352C64.3347 40.0506 62.5668 40.0911 60.8679 40.1565C59.437 40.3113 58.1134 40.4948 56.9057 40.7059C56.1522 40.7893 55.4476 40.8892 54.1611 40.7805C53.5507 40.682 53.0243 40.5525 52.6751 40.4151C52.3258 40.2776 52.1764 40.1411 52.2533 40.0298C52.3223 39.9425 52.5177 39.8734 52.8211 39.8291C53.1245 39.7847 53.5257 39.7666 53.987 39.7764C55.2784 39.7603 56.4726 39.7063 57.5455 39.6154C59.0388 39.4507 60.8567 39.3797 62.893 39.4065C63.5836 39.4302 64.0465 39.3418 64.6506 39.3129C65.2546 39.284 65.7664 39.2121 66.4398 39.265C68.5321 39.4014 69.5353 39.1925 70.7891 39.0567C71.2136 38.9965 71.4765 38.8992 71.5491 38.7755C71.6217 38.6518 71.501 38.5066 71.2004 38.3557C70.6217 38.0552 69.9138 37.753 69.0877 37.4539C68.6626 37.3068 68.1179 37.1672 67.4964 37.0459C66.8749 36.9247 66.1934 36.825 65.5055 36.7549C65.0938 36.5709 64.8742 36.3899 64.8665 36.2283C64.8587 36.0668 65.0633 35.9298 65.4614 35.8297C66.476 35.6013 67.3755 35.369 69.649 35.4966C70.7178 35.5454 71.7238 35.5547 72.6268 35.5243C74.6297 35.4826 76.9401 35.5738 79.3402 35.7894C79.9612 35.8446 80.5716 35.8823 81.1533 35.9012C85.3027 36.0337 89.256 36.0998 93.2209 36.1464C95.3212 36.1688 97.4388 36.162 99.6314 36.2273C104.773 36.369 109.454 36.2961 114.417 36.3423C117.017 36.366 119.343 36.2706 121.275 36.0611C121.651 35.9908 121.975 35.9089 122.241 35.8161C120.961 35.5727 119.554 35.3799 118.157 35.2563C116.759 35.1327 115.417 35.0824 114.26 35.1102C113.623 35.1784 112.8 35.1908 111.883 35.1462C110.966 35.1016 109.991 35.0017 109.065 34.8575L111.755 34.776C113.539 34.7379 115.366 34.7261 117.1 34.6714C119.856 34.5772 122.41 34.4264 125.264 34.3654C127.568 34.3093 129.63 34.1659 131.385 33.9398C132.652 33.7748 134.1 33.6578 135.699 33.5912C136.835 33.5557 136.835 33.5557 137.562 33.2181C136.985 32.9996 136.24 32.9691 135.538 32.9649C131.329 32.8275 127.324 32.8034 123.603 32.8931C121.726 32.9011 120.061 32.9937 118.688 33.1664C118.351 33.2393 117.491 33.2048 116.8 33.1811C114.635 33.1451 112.566 33.1556 110.618 33.2124C107.924 33.3071 104.923 33.2846 101.733 33.1459C101.128 32.9762 101.824 32.9901 101.858 32.9317C104.329 32.8228 106.751 32.6973 109.271 32.605C109.96 32.5721 110.697 32.5558 111.472 32.5564C114.368 32.6136 116.78 32.455 118.372 32.1028C118.452 31.9665 119.5 31.9826 119.963 31.8942C120.19 31.8177 120.342 31.7276 120.413 31.6265C119.739 31.375 118.976 31.3736 118.389 31.3734C116.686 31.4014 115.048 31.4547 113.482 31.5328C112.026 31.6071 110.415 31.627 108.692 31.5919C107.42 31.5582 106.332 31.6103 105.049 31.5961C104.353 31.5661 103.633 31.518 102.902 31.4529C103.715 31.2775 104.821 31.1697 106.141 31.1369C107.141 31.0322 108.393 31.0006 108.553 30.728C108.08 30.533 107.553 30.5298 107.131 30.5501C106.25 30.5493 105.4 30.5616 104.585 30.5869C102.855 30.6423 100.982 30.6431 99.0058 30.5892C97.9651 30.569 96.9776 30.5751 96.0598 30.6073C93.9798 30.6501 91.9864 30.7456 90.0819 30.7895C86.1808 30.8345 82.6226 30.9955 78.8741 31.0804C78.0399 31.1015 77.292 31.1751 76.1924 31.048C75.0928 30.9209 75.0439 30.9043 74.9141 30.8254C74.6064 30.6937 74.5132 30.566 74.6537 30.4688C74.8718 30.3781 75.2967 30.3275 75.8527 30.3262C79.2036 30.1818 82.3819 29.979 85.3677 29.719C86.6817 29.667 87.833 29.5607 88.7814 29.4041C89.5336 29.2962 90.4259 29.2248 91.4302 29.192C92.891 29.114 94.4139 29.0569 95.9926 29.0208C96.7272 29.0014 97.3518 28.9436 97.8297 28.8508C98.3076 28.7581 98.6291 28.6322 98.7753 28.4806L96.8398 27.9772C96.5357 27.9537 96.2341 27.9334 95.9361 27.9164L79.8719 28.279L78.281 28.289C76.5373 28.2589 76.1112 28.1847 74.4572 27.6016C78.2319 27.4644 81.1991 27.0645 83.0634 26.4418C82.6154 26.3748 82.1561 26.3173 81.6961 26.2707C78.6795 26.1234 75.828 26.0843 73.2512 26.1548C71.7206 26.1619 70.1469 26.1427 68.5673 26.1332C69.0293 25.8461 70.799 25.9316 71.9524 25.8669C74.7084 25.7656 77.1455 25.5564 79.1857 25.246C79.8891 25.125 80.7692 25.0476 81.7856 25.0174C82.8027 25.007 83.6523 24.9337 84.2605 24.804C84.8687 24.6742 85.217 24.4919 85.2751 24.273C85.3709 24.0747 85.5774 23.8905 85.8914 23.723C85.3359 23.4854 84.4537 23.2579 83.4104 23.0831C82.3672 22.9084 81.2346 22.7984 80.2252 22.7738C78.0704 22.676 75.8354 22.5158 73.5771 22.2974C72.4522 22.1872 71.3491 22.124 70.3396 22.1118C69.4493 22.1024 68.4373 22.0229 67.458 21.8853C66.4787 21.7477 65.586 21.5596 64.9158 21.3497C64.0113 21.0902 63.1671 20.8278 62.323 20.5655C61.4788 20.3031 60.4993 19.9715 59.514 19.6497C58.6452 19.5994 57.7992 19.567 56.9875 19.5531C56.3559 19.5649 55.619 19.5298 54.8637 19.452C54.1083 19.3741 53.366 19.2568 52.7245 19.1138C53.1008 18.9728 53.5261 18.8483 53.9743 18.6849C53.3592 18.4691 52.9132 18.2491 52.6635 18.0382C52.4138 17.8273 52.3656 17.6299 52.5218 17.4581C52.6132 17.3023 51.9446 17.041 51.7135 16.8344C51.4161 16.6564 51.3602 16.4902 51.5532 16.3577C51.7462 16.2252 52.1791 16.1325 52.7951 16.0919C53.5591 16.0169 54.1809 15.904 54.635 15.7577C54.7852 15.7198 54.8616 15.6678 54.8574 15.6065C54.8531 15.5452 54.7682 15.4767 54.6105 15.407C54.4528 15.3374 54.2273 15.2689 53.9546 15.2079C53.6819 15.1469 53.3708 15.0953 53.0496 15.0577C52.0658 14.9513 51.0887 14.8824 50.1745 14.8548C48.5995 14.8041 47.0918 14.7722 45.6512 14.7592C44.0581 14.7396 42.2857 14.6189 40.5141 14.4091C38.928 14.2107 37.5059 14.0328 36.7303 13.6536C35.9548 13.2744 34.7148 13.2865 33.7613 13.0104C34.2969 12.7616 35.2489 12.5887 36.5212 12.5092C37.3538 12.4808 38.0488 12.4063 38.5616 12.2905C39.0744 12.1747 39.3937 12.0201 39.499 11.8366L36.6042 11.0669C34.2923 10.7045 33.0132 10.9834 30.5153 10.8381L33.0891 10.554C33.1408 10.5259 33.1601 10.4929 33.1462 10.4566C32.8963 9.8819 32.4987 9.75901 29.8677 9.4403L28.391 9.25556L26.0538 9.03631C25.6794 8.91853 25.4206 8.79571 25.303 8.68012C25.1853 8.56453 25.2131 8.46023 25.3835 8.37766C25.7259 8.23879 25.83 8.06133 25.6862 7.86163C25.4596 7.72934 25.4409 7.6074 25.6334 7.51694C25.8258 7.42648 26.2174 7.37322 26.74 7.36642C27.1572 7.3559 27.1882 7.20301 27.4151 7.11644C27.6405 6.99712 28.0265 6.90556 28.5465 6.84799C29.0666 6.79042 29.7085 6.76818 30.4287 6.78281C32.5523 6.79475 34.5472 6.74996 36.378 6.64923L36.0498 6.60817C37.9581 6.69661 39.7421 6.70733 41.315 6.63983C42.8913 6.55486 44.9142 6.60937 46.5885 6.55755C47.9515 6.56944 48.9892 6.45184 49.4814 6.22972C49.9581 6.01763 51.6903 6.06713 53.0168 6.10767C53.8026 6.1339 54.5621 6.14501 55.2871 6.14088C56.2602 6.09287 57.4769 6.13813 58.7344 6.26908C59.1117 6.30934 59.4834 6.33064 59.8136 6.33094C63.0103 6.38599 66.2012 6.45076 69.3546 6.47949C70.0825 6.46295 70.936 6.50084 71.815 6.58873C72.1844 6.62688 72.544 6.64269 72.8453 6.63402C77.828 6.54673 83.4508 6.76944 88.3356 6.64899C88.9276 6.62055 89.5831 6.61464 90.2834 6.6314C91.857 6.70216 93.2235 6.65662 94.1755 6.50173C94.6891 6.41934 95.3476 6.37394 96.109 6.36843C96.8703 6.36291 97.7178 6.3974 98.5975 6.4697C100.061 6.56542 101.414 6.5758 102.513 6.49974C104.656 6.42947 106.91 6.40058 109.257 6.41328C109.976 6.42558 110.608 6.39827 111.104 6.33348C111.6 6.26869 111.947 6.16815 112.118 6.03965C111.542 5.82123 110.911 5.79466 110.313 5.81386C107.994 5.76409 105.68 5.70458 103.405 5.68112C101.367 5.61413 99.4129 5.59364 97.5695 5.61998C96.6542 5.64969 95.5121 5.58194 94.3924 5.43152C93.0201 5.24102 91.6067 5.14637 90.4381 5.16673C89.5716 5.17178 88.657 5.15538 87.7075 5.11774C87.0998 5.07236 86.4768 4.99443 85.9026 4.89194C85.6748 4.84744 85.4267 4.81001 85.1745 4.78206C84.9222 4.75412 84.6714 4.73629 84.4377 4.72967C84.204 4.72306 83.9926 4.72781 83.8173 4.74364C83.642 4.75948 83.5065 4.78606 83.4194 4.82165C82.5403 5.11925 80.5746 4.96738 78.8913 4.93446C76.3688 4.43077 74.4915 4.72889 72.1339 4.4444C71.9475 4.42554 71.7637 4.41411 71.594 4.41085C71.4244 4.40759 71.2723 4.41256 71.1469 4.42543C66.5845 4.59666 61.2671 4.45396 56.477 4.51309C55.9487 4.52174 55.3355 4.4921 54.7072 4.42755C50.6008 4.0003 46.6526 3.879 43.6346 4.08738C43.2674 4.10615 42.8497 4.10695 42.4004 4.08974C40.337 3.91994 38.3637 3.85224 36.6453 3.89229C33.9523 3.87936 31.363 3.88984 28.6267 3.85059C26.7405 3.79474 25.0858 3.85441 23.8284 4.02365C23.7884 4.09181 22.9508 4.01837 22.3092 4.01125C21.9401 3.83968 21.6202 3.6847 21.2398 3.53259C20.8997 3.34442 20.3903 3.15399 19.7462 2.97424C19.1021 2.79449 18.3384 2.62961 17.5067 2.49076C16.0846 2.31285 15.9424 2.05468 16.9375 1.9597C19.5023 1.64547 22.7273 1.51685 26.3756 1.5833C29.4254 1.58861 32.5299 1.60078 35.6229 1.6324C37.427 1.65953 39.3289 1.7198 41.0839 1.73035C41.6762 1.75354 42.2845 1.78771 42.9027 1.83249C43.6613 1.89742 44.3977 1.9328 45.0726 1.93673C47.2392 1.88205 49.6573 1.92969 52.2113 2.07737C53.1468 2.10957 54.0451 2.12042 54.8929 2.10977C56.8984 2.06968 59.0726 2.09918 61.358 2.19749C62.7785 2.25293 64.1557 2.28191 65.4756 2.28414C65.9417 2.2902 66.3213 2.24363 66.7703 2.2789C70.7221 2.64789 73.5204 2.38137 77.0771 2.52326C78.8057 2.56282 80.4572 2.56293 82.0084 2.5236C85.0356 2.5255 88.1472 2.56595 91.3308 2.64479C95.5405 2.77432 99.4416 2.72938 103.461 2.78286C104.255 2.7941 105.021 2.79218 105.754 2.77712C109.321 2.67758 113.196 2.69869 117.283 2.83993C118.211 2.86033 119.045 2.83538 119.732 2.76666C120.418 2.69793 120.944 2.58691 121.275 2.44053C121.415 2.34006 121.324 2.20958 121.02 2.07424C120.515 1.90139 119.946 1.73204 119.32 1.56898L96.5687 1.02179C95.6131 0.99322 94.6812 0.977839 93.7778 0.975711C91.1206 0.970954 88.3817 0.928384 85.5746 0.848219C82.8008 0.772916 80.1509 0.786284 77.4636 0.763613C76.6721 0.756017 75.8596 0.738097 75.0295 0.709906C69.4184 0.486777 63.9471 0.350491 58.654 0.302029C56.4271 0.295151 54.0214 0.192749 51.7513 0.159558C49.4811 0.126367 46.3766 0.114211 43.6836 0.101275L35.3459 0.103261C33.7059 0.0966571 32.1091 0.116362 30.5182 0.126336C28.5874 -0.585497 27.9221 -0.752343 25.3458 -1.06421C24.4644 -1.17925 23.5679 -1.2479 22.7613 -1.26212C20.2038 -1.20585 16.9948 -1.4401 14.5696 -1.40909C13.1062 -1.42438 11.8644 -1.3453 10.9713 -1.17995C10.1961 -1.05017 9.30968 -0.947484 8.32566 -0.873434C5.63008 -1.48239 5.39252 -1.87789 7.42021 -2.0318C7.96959 -2.06758 8.7263 -2.05651 9.12302 -2.13229C9.35064 -2.17844 9.6616 -2.20484 10.0311 -2.2094C10.4006 -2.21396 10.8185 -2.19657 11.2519 -2.15858C12.6197 -2.05893 13.9018 -2.03549 14.9695 -2.09062C15.9742 -2.1636 17.2059 -2.16068 18.5456 -2.08216C19.5301 -1.95899 20.3955 -2.1329 21.2469 -2.18315C22.0983 -2.2334 22.797 -2.32366 24.1268 -2.18865C24.3703 -2.16176 24.612 -2.14562 24.8335 -2.14147C25.055 -2.13731 25.2502 -2.14525 25.4043 -2.16468C26.8326 -2.25163 28.5369 -2.2425 30.379 -2.13802C33.2042 -2.0352 35.8549 -2.03135 38.2392 -2.12658C39.6665 -2.20991 40.8834 -2.35768 41.8424 -2.56412C42.1038 -2.63318 42.4919 -2.67458 42.9697 -2.68437C45.3686 -2.6413 47.9735 -2.47918 50.6162 -2.20848C51.6118 -2.10002 52.6061 -2.01422 53.5778 -1.95293C55.5751 -1.81675 57.5068 -1.74045 59.3157 -1.72627C61.9443 -1.72402 64.6811 -1.67163 67.5018 -1.56957C69.2425 -1.51274 70.9199 -1.49176 72.5139 -1.50687C74.1523 -1.51399 75.9016 -1.47064 77.7221 -1.37783C79.5325 -1.3022 81.128 -1.34578 82.3162 -1.50329C82.7075 -1.58817 83.0226 -1.68896 83.2558 -1.80378C80.6049 -2.17741 77.8633 -2.3673 75.5831 -2.3352C74.7169 -2.35995 73.9978 -2.33496 73.0851 -2.48049L73.0565 -2.43181C72.8749 -2.40023 72.6009 -2.39277 72.2867 -2.41088C71.9726 -2.42898 71.6402 -2.47138 71.3529 -2.52998C71.4615 -2.71497 71.5643 -2.89022 71.6386 -3.01679C73.376 -2.99447 75.0629 -2.99627 76.6908 -3.02223C78.063 -3.05958 79.9258 -2.73247 81.1136 -2.8556C83.4303 -2.70162 84.9053 -2.91422 86.9829 -2.85287C89.0604 -2.79153 91.3486 -2.58887 93.4261 -2.52753C95.239 -2.49386 96.9992 -2.48655 98.697 -2.50561C99.283 -2.53237 99.9586 -2.52609 100.682 -2.48716C101.7 -2.41392 102.646 -2.40164 103.412 -2.45176C104.179 -2.50187 104.735 -2.61234 105.017 -2.7705C104.751 -2.91866 104.394 -3.10969 103.982 -3.30758C104.74 -3.47019 105.892 -3.53865 107.266 -3.5028L109.209 -3.51065C109.723 -3.50636 110.117 -3.55032 110.307 -3.63343C110.498 -3.71655 110.472 -3.83245 110.234 -3.95719C106.551 -4.5851 106.416 -4.65432 103.713 -4.25044L100.124 -4.43812L100.185 -4.44101ZM148.723 -2.71613L148.45 -2.75034L148.723 -2.71613ZM595.93 64.0906L595.867 64.1977L595.935 64.0809L596.537 64.1562L596.577 64.088L595.93 64.0906ZM508.578 17.1487C507.728 17.0318 506.869 16.9244 506.007 16.8271C505.782 16.812 505.571 16.8086 505.392 16.8171C505.213 16.8257 505.072 16.846 504.98 16.8763C504.912 16.9931 505.393 17.0742 505.83 17.1289C506.382 17.2026 506.946 17.2494 507.463 17.2645C507.981 17.2797 508.433 17.2626 508.774 17.215L509.269 17.1724L508.578 17.1487ZM70.5756 45.6245C71.1355 45.6441 71.6664 45.6474 72.1553 45.634C74.3242 45.5396 76.4008 45.4022 78.6244 45.3146C81.43 45.0923 84.654 45.0017 88.1752 45.0464C89.5509 45.0682 90.7132 44.9961 91.5263 44.8385C92.013 44.754 92.6413 44.7046 93.3727 44.6933L102.682 44.4366C103.257 44.3834 103.755 44.3087 104.163 44.2143C103.342 44.1117 102.795 44.0432 102.467 44.0022C101.786 43.9907 101.201 44.0219 100.77 44.0929C100.307 44.2133 99.5247 44.2609 98.5782 44.2263C97.6226 44.1977 96.6908 44.1824 95.7873 44.1802C94.0812 44.1863 92.3636 44.2117 90.6518 44.2275C89.9857 44.5622 88.02 44.4103 86.3367 44.3774L85.0363 44.3924C80.7857 44.5659 76.7254 44.8046 72.875 45.1074C72.1309 45.1587 71.4898 45.2404 70.9715 45.35C70.7763 45.4356 70.7137 45.5422 70.7887 45.6616L70.5153 45.6274L70.5756 45.6245ZM260.391 77.6278C261.423 77.6506 262.497 77.6974 263.597 77.7676C264.445 77.8392 265.272 77.8827 266.046 77.8963C270.382 77.9714 274.9 78.1446 279.539 78.4139C280.146 78.4546 280.729 78.4746 281.266 78.4731L285.063 78.4047C286.26 78.3663 286.283 78.3274 285.411 77.8108C284.688 77.7106 283.957 77.6191 283.224 77.5371C282.786 77.4824 282.075 77.3934 281.909 77.4771C280.894 77.7055 279.043 77.5576 277.487 77.5092C272.981 77.3844 268.333 77.2001 263.784 77.049C262.822 77.012 261.89 76.9933 260.999 76.9931C260.445 76.9854 259.941 77 259.506 77.0363C259.379 77.04 259.272 77.0508 259.194 77.068C259.115 77.0852 259.066 77.1083 259.05 77.136C259.033 77.1636 259.05 77.195 259.1 77.2282C259.149 77.2614 259.229 77.2955 259.334 77.3283C259.707 77.4433 260.137 77.5535 260.61 77.6552L260.391 77.6278ZM293.401 2.65479L297.84 2.59354C298.372 2.58697 298.824 2.51804 299.393 2.54752C302.433 2.64095 305.247 2.61493 307.717 2.47055C308.557 2.41163 309.541 2.39985 310.614 2.43586C313.897 2.54255 316.995 2.54694 319.823 2.4489C321.651 2.42922 323.362 2.36314 324.929 2.25163C325.05 2.22574 325.125 2.1906 325.15 2.14859C325.175 2.10659 325.148 2.05871 325.072 2.00822C325.052 1.97633 324.999 1.94201 324.915 1.90765C324.831 1.87329 324.718 1.83969 324.586 1.80917C324.453 1.77866 324.303 1.75196 324.146 1.73089C323.989 1.70983 323.828 1.69489 323.675 1.68715C321.695 1.53621 319.814 1.48362 318.188 1.53366C316.68 1.59354 315.057 1.61106 313.343 1.58595C311.703 1.57935 310.591 1.77458 308.565 1.62561C307.707 1.57655 306.952 1.5927 306.424 1.67135C305.363 1.80171 303.882 1.80897 302.244 1.69182C301.264 1.63253 300.328 1.6071 299.47 1.61651C297.39 1.65937 295.402 1.74512 293.475 1.82798C292.868 1.84715 292.217 1.84979 291.533 1.83585L281.883 1.6736C279.563 1.62384 277.25 1.56433 274.974 1.54087C273.113 1.48994 271.381 1.50589 269.839 1.58816C268.195 1.67463 266.402 1.70973 264.493 1.69281C261.53 1.74013 258.584 1.75823 255.359 1.75186C253.302 1.75578 251.196 1.74312 249.046 1.70414C247.959 1.65398 247.036 1.69483 246.455 1.81884C246.101 1.92093 245.269 1.83776 244.579 1.81407C240.895 1.5857 237.441 1.53159 234.456 1.6555C234.075 1.6757 233.657 1.68301 233.211 1.67731C230.336 1.67305 227.358 1.64538 224.599 1.64507C223.873 1.6547 223.189 1.68111 222.557 1.72399C222.625 1.79393 222.818 1.86974 223.096 1.93569C223.374 2.00165 223.717 2.05268 224.052 2.07821C226.661 2.27362 229.181 2.37685 231.505 2.38356C235.373 2.35867 239.425 2.41463 243.618 2.55086C246.872 2.68819 249.839 2.65928 252.298 2.46626C254.22 2.32224 256.721 2.37643 259.37 2.61952C260.504 2.73562 261.605 2.78204 262.521 2.75245C263.404 2.71363 264.416 2.72304 265.499 2.78014C267.783 2.8887 269.98 2.93907 272.045 2.93023C274.065 2.89027 275.949 2.78109 278.023 2.74797C280.098 2.71484 283.257 2.73382 285.814 2.67755C288.372 2.62128 290.9 2.61369 293.401 2.65479ZM109.461 -3.04015C109.695 -2.73911 110.525 -2.55173 111.417 -2.47146C114.493 -2.11502 117.534 -1.96335 120.03 -2.04188C121.378 -2.15143 123.175 -2.10926 125.068 -1.92366C127.272 -1.73072 129.333 -1.69872 130.886 -1.83331C131.266 -1.85682 131.558 -1.90654 131.734 -1.97802C131.768 -2.03644 131.831 -2.14353 131.843 -2.16301C131.679 -2.21239 131.479 -2.25814 131.258 -2.29675C131.036 -2.33535 130.799 -2.36576 130.564 -2.38564L120.375 -2.73025L118.599 -2.80608C115.356 -3.00475 112.266 -3.0839 109.461 -3.04015ZM129.503 1.72465C131.093 2.21623 131.099 2.20647 131.914 2.31885C135.844 2.78562 139.772 3.03759 143.229 3.04478C143.998 3.04335 144.65 2.9959 145.131 2.90641C145.378 2.89428 145.535 2.85575 145.569 2.79921C145.602 2.74266 145.508 2.67271 145.308 2.60459L144.043 2.25827C141.747 2.10834 139.483 1.98921 137.266 1.9016C134.685 1.79815 132.398 1.79415 129.722 1.75201L129.503 1.72465ZM260.201 75.4511C261.683 76.1277 261.688 76.1179 264.169 76.2924C265.898 76.4161 267.575 76.4887 269.15 76.508C271.075 76.5294 273.049 76.5673 274.968 76.5984C275.437 76.6199 275.834 76.602 276.083 76.5482C276.331 76.4943 276.414 76.4083 276.313 76.3068C276.062 76.1967 275.668 76.0902 275.196 76.0046C274.724 75.919 274.201 75.8593 273.713 75.8352L272.666 75.8192C271.394 75.7855 270.073 75.7352 268.845 75.7278C268.048 75.7558 267.124 75.7341 266.146 75.6644C265.169 75.5947 264.164 75.4788 263.21 75.3259L260.201 75.4511ZM137.416 -2.15554C137.811 -2.03837 138.259 -1.92615 138.746 -1.82187C140.633 -1.53282 142.631 -1.36865 144.347 -1.36154C145.158 -1.34364 145.9 -1.40757 146.727 -1.31467C148.208 -1.19052 149.644 -1.12439 150.957 -1.11986C150.957 -1.11986 151.325 -1.14697 151.446 -1.15275L151.697 -1.58115C151.076 -1.68039 150.428 -1.76146 149.783 -1.82064C147.619 -1.93462 145.492 -2.01254 143.371 -2.10019C141.251 -2.18785 140.511 -2.22812 139.124 -2.26577C138.505 -2.24508 137.933 -2.20815 137.416 -2.15554ZM90.5519 51.1021L93.3839 51.979C94.3003 52.0552 95.1564 52.069 95.822 52.0183C96.4876 51.9676 96.9261 51.8552 97.0709 51.6982C97.3041 51.6248 97.3275 51.516 97.1361 51.3946C96.9446 51.2732 96.5532 51.1487 96.044 51.0472C95.5538 50.9269 94.9944 50.819 94.4001 50.7303C93.8058 50.6416 93.1895 50.5739 92.5893 50.5314L90.5519 51.1021ZM114.131 46.7364C112.279 46.5877 110.507 46.527 108.951 46.5587C107.971 46.6457 106.643 46.6179 105.24 46.481C102.687 46.2083 100.227 46.1327 98.377 46.2704C98.377 46.2704 98.3084 46.3872 97.9949 46.4212C97.6814 46.4551 98.9247 46.5375 99.1982 46.5717C101.204 46.6554 103.221 46.7197 104.965 46.7497C106.047 46.7484 107.192 46.776 108.38 46.8321C110.014 46.9186 111.564 46.9466 112.969 46.9151C112.969 46.9151 113.513 46.889 114.125 46.7462L114.131 46.7364ZM311.946 1.06621C311.061 0.901079 310.101 0.766865 309.139 0.673653C308.177 0.580441 307.238 0.530647 306.39 0.527997C305.742 0.519382 305.217 0.56298 304.899 0.651904C304.581 0.740827 304.488 0.870002 304.635 1.019C305.291 1.10111 306.166 1.21059 306.658 1.27217C308.364 1.26614 309.82 1.18696 311.946 1.06621ZM477.559 14.982C476.85 14.8491 476.068 14.7474 475.303 14.6887C474.538 14.63 473.821 14.6165 473.234 14.6498C472.932 14.6643 473.137 14.8154 473.085 14.903C473.052 14.9229 473.052 14.9476 473.086 14.9745C473.121 15.0015 473.188 15.0297 473.28 15.0563C473.373 15.0828 473.487 15.1066 473.612 15.1253C473.737 15.144 473.867 15.1568 473.99 15.1625C474.76 15.2197 475.487 15.2368 476.106 15.2121C476.725 15.1874 477.216 15.1217 477.537 15.0209L477.559 14.982ZM488.656 16.8823C488.546 16.8039 488.312 16.7221 487.998 16.652C487.683 16.582 487.308 16.5282 486.942 16.5007C486.296 16.497 485.708 16.5188 485.202 16.5652C484.653 16.601 485.048 16.8281 485.791 16.9628C486.105 17.0169 486.441 17.0591 486.772 17.086C487.103 17.1129 487.42 17.1239 487.697 17.118C487.974 17.112 488.204 17.0894 488.368 17.0519C488.533 17.0144 488.627 16.963 488.644 16.9018L488.656 16.8823ZM166.222 -1.3212C164.566 -1.60147 163.292 -1.53096 161.89 -1.64361C160.489 -1.75626 160.143 -1.76811 160.331 -1.58785C160.519 -1.4076 161.48 -1.44415 162.082 -1.36889C162.894 -1.26901 163.712 -1.21166 164.443 -1.20324C165.175 -1.19481 165.79 -1.23566 166.222 -1.3212ZM511.2 46.1016C510.323 46.0387 509.464 45.9943 508.636 45.969C508.527 45.995 508.458 46.0291 508.435 46.0693C508.411 46.1094 508.433 46.1547 508.499 46.2026C508.499 46.2026 509.06 46.346 509.388 46.3871C510.597 46.5279 510.657 46.3263 511.2 46.1016ZM635.136 72.2145C635.73 72.4037 636.006 72.5324 636.482 72.6232C636.7 72.6547 636.925 72.6776 637.142 72.6902C637.358 72.7028 637.559 72.7047 637.73 72.6958C637.939 72.6413 637.988 72.5579 637.868 72.4622C637.868 72.4622 637.263 72.2924 637.033 72.2845C636.376 72.2444 635.739 72.2209 635.136 72.2145ZM138.042 -2.92365C136.784 -3.08103 135.581 -3.23158 134.71 -3.04792C136.708 -2.85027 136.708 -2.85025 138.042 -2.92365ZM158.417 -1.12712C157.147 -1.4637 156.401 -1.49425 155.792 -1.45557C155.662 -1.44583 155.576 -1.42412 155.547 -1.39374C155.518 -1.36336 155.548 -1.32595 155.631 -1.28717C155.715 -1.2484 155.847 -1.21038 156.01 -1.17884C156.172 -1.14731 156.354 -1.12399 156.53 -1.11241C157.192 -1.10273 157.824 -1.10765 158.417 -1.12712ZM223.794 -0.984794C223.823 -1.03347 223.857 -1.09189 223.529 -1.13295C223.443 -1.15379 223.342 -1.17171 223.236 -1.18492C223.131 -1.19814 223.024 -1.20616 222.927 -1.2082C222.927 -1.2082 222.893 -1.14978 222.87 -1.11084L223.794 -0.984794ZM269.193 79.8368L268.463 79.8812L268.791 79.9223L269.657 79.947L269.193 79.8368ZM526.44 16.1227C526.167 16.0885 525.893 16.0543 525.853 16.1224C525.796 16.133 525.76 16.1482 525.749 16.1668C525.738 16.1855 525.752 16.207 525.791 16.2295C525.791 16.2295 526.174 16.2774 526.338 16.2979L526.44 16.1227ZM483.85 16.6678C483.67 16.6639 483.508 16.6684 483.373 16.6812L483.338 16.7396L483.885 16.8081L483.85 16.6678ZM112.687 30.5868C112.475 30.5513 112.251 30.5233 112.03 30.5047L111.757 30.4704C111.757 30.4704 112.051 30.5699 112.215 30.5904C112.379 30.611 112.511 30.5857 112.687 30.5868Z" fill="#F1A501"/>
</g>
</svg>
