<svg width="248" height="244" viewBox="0 0 248 244" fill="none" xmlns="http://www.w3.org/2000/svg">
<path d="M138.535 135.989C137.168 136.414 135.825 137.079 134.591 137.943C131.376 140.146 129.435 143.021 130.256 144.364C131.077 145.707 134.349 145.009 137.564 142.805C138.814 141.966 139.936 140.942 140.863 139.796C141.293 139.244 141.395 138.601 141.121 138.155L140.055 136.411C139.783 135.964 139.187 135.799 138.535 135.989Z" fill="#D5D6DB"/>
<path d="M130.595 109C129.603 109.308 128.63 109.791 127.734 110.417C125.404 112.014 123.995 114.099 124.59 115.072C125.185 116.045 127.559 115.538 129.889 113.941C130.795 113.332 131.609 112.589 132.281 111.758C132.593 111.358 132.666 110.892 132.468 110.569L131.696 109.306C131.499 108.982 131.067 108.862 130.595 109Z" fill="#D5D6DB"/>
<path d="M117.799 111.248C117.581 111.247 117.345 111.326 117.138 111.469L111.657 115.234C111.199 115.548 110.997 116.083 111.207 116.43C111.255 116.509 111.323 116.574 111.407 116.621L124.187 123.859L142.462 111.306L117.799 111.248Z" fill="#029BC5"/>
<path d="M173.971 106.915L125.109 138.56L96.4728 151.402L81.988 155.374L80.5195 153.108L161.925 101.227C164.352 99.6748 167.024 98.6071 169.672 98.132C170.831 97.9294 171.971 97.8531 173.063 97.9041C174.032 97.9424 174.945 98.1094 175.775 98.4001C176.701 98.7309 178.499 98.6045 179.043 99.3901C179.045 99.3886 180.242 103.122 173.971 106.915Z" fill="#E1E6E9"/>
<path d="M126.51 136.494L104.399 169.02C104.121 169.473 104.253 169.937 104.694 170.056C104.964 170.129 105.303 170.056 105.593 169.862L111.01 166.251C112.052 165.556 112.985 164.713 113.751 163.773L155.928 116.203L126.51 136.494Z" fill="#029BC5"/>
<path d="M73.3359 135.116C72.989 135.038 72.5676 135.141 72.2047 135.393L67.6481 138.557C67.0273 138.988 66.7554 139.721 67.0407 140.195C67.0951 140.285 67.1674 140.362 67.2556 140.422L79.2763 148.672L92.6924 139.503L73.3359 135.116Z" fill="#029BC5"/>
<path d="M83.9383 151.123L76.9849 160.222C76.8831 160.353 76.8988 160.503 77.02 160.557C77.1074 160.596 77.2301 160.575 77.3323 160.504L81.5112 157.732C81.5437 157.711 81.5734 157.685 81.5982 157.656L91.6843 145.988L83.9383 151.123Z" fill="#029BC5"/>
<path d="M171.919 98.7984C170.779 98.7417 169.591 98.8253 168.381 99.0466C167.138 100.704 166.311 102.509 165.982 104.281C165.948 104.633 166.238 104.855 166.63 104.777C166.752 104.752 166.875 104.7 166.986 104.625L174.749 99.3439C173.883 99.0246 172.93 98.8409 171.919 98.7984Z" fill="#029BC5"/>
<path d="M155.285 108.352L160.49 104.691L164.879 112.037L159.674 115.697L155.285 108.352Z" fill="#D5D6DB"/>
<path d="M152.208 111.051C151.583 111.492 151.307 112.236 151.593 112.712L152.055 113.485C152.361 113.947 153.108 113.951 153.724 113.494C154.309 113.059 154.569 112.359 154.318 111.89L153.856 111.118C153.57 110.641 152.833 110.611 152.208 111.051Z" fill="#3A556A"/>
<path d="M147.744 113.824C147.119 114.264 146.844 115.008 147.129 115.485L147.591 116.257C147.898 116.719 148.645 116.723 149.26 116.267C149.846 115.832 150.105 115.131 149.854 114.663L149.392 113.89C149.106 113.414 148.369 113.384 147.744 113.824Z" fill="#3A556A"/>
<path d="M143.278 116.597C142.654 117.038 142.379 117.781 142.664 118.257L143.126 119.03C143.433 119.491 144.18 119.496 144.795 119.039C145.381 118.604 145.64 117.904 145.389 117.435L144.927 116.663C144.641 116.186 143.903 116.157 143.278 116.597Z" fill="#3A556A"/>
<path d="M138.814 119.37C138.19 119.811 137.915 120.553 138.2 121.03L138.663 121.802C138.969 122.264 139.716 122.268 140.331 121.812C140.917 121.377 141.177 120.676 140.925 120.208L140.463 119.435C140.177 118.959 139.439 118.929 138.814 119.37Z" fill="#3A556A"/>
<path d="M134.35 122.143C133.726 122.584 133.45 123.328 133.736 123.805L134.199 124.578C134.484 125.055 135.222 125.084 135.847 124.644C136.472 124.203 136.747 123.459 136.462 122.983L135.999 122.209C135.715 121.732 134.977 121.702 134.352 122.142C134.351 122.142 134.351 122.142 134.35 122.143Z" fill="#3A556A"/>
<path d="M129.886 124.915C129.261 125.357 128.986 126.1 129.271 126.577L129.734 127.351C130.019 127.827 130.757 127.857 131.382 127.416C132.007 126.976 132.282 126.232 131.997 125.755L131.534 124.982C131.25 124.504 130.512 124.474 129.887 124.914C129.886 124.915 129.886 124.915 129.886 124.915Z" fill="#3A556A"/>
<path d="M125.421 127.688C124.796 128.129 124.521 128.873 124.806 129.35L125.269 130.123C125.555 130.599 126.293 130.627 126.918 130.186C127.541 129.746 127.816 129.004 127.532 128.528L127.069 127.754C126.784 127.277 126.046 127.247 125.421 127.688Z" fill="#3A556A"/>
<path d="M120.957 130.46C120.332 130.901 120.057 131.645 120.342 132.122L120.805 132.895C121.091 133.372 121.829 133.4 122.454 132.959C123.077 132.519 123.352 131.777 123.068 131.3L122.605 130.527C122.32 130.05 121.582 130.02 120.957 130.46Z" fill="#3A556A"/>
<path d="M116.492 133.233C115.867 133.674 115.592 134.418 115.877 134.894L116.34 135.668C116.626 136.144 117.365 136.172 117.989 135.731C118.612 135.291 118.887 134.549 118.603 134.073L118.141 133.299C117.855 132.822 117.117 132.792 116.492 133.233Z" fill="#3A556A"/>
<path d="M112.026 136.006C111.401 136.446 111.126 137.19 111.411 137.667L111.412 137.668L111.874 138.441C112.16 138.917 112.899 138.945 113.523 138.504C114.146 138.064 114.421 137.322 114.137 136.846L113.675 136.073C113.39 135.595 112.652 135.565 112.026 136.006Z" fill="#3A556A"/>
<path d="M107.563 138.778C106.938 139.218 106.663 139.962 106.948 140.438L106.949 140.439L107.412 141.213C107.698 141.689 108.436 141.717 109.06 141.276C109.684 140.836 109.959 140.094 109.675 139.618L109.212 138.844C108.927 138.367 108.189 138.337 107.563 138.778Z" fill="#3A556A"/>
</svg>
