<svg width="70" height="75" viewBox="0 0 70 75" fill="none" xmlns="http://www.w3.org/2000/svg">
<path fill-rule="evenodd" clip-rule="evenodd" d="M28.1041 14.977C27.9006 13.7691 27.7472 12.575 27.6481 11.3807C27.4989 9.58928 27.5912 7.78415 27.5382 5.99272C27.5152 5.23272 27.4242 3.25132 27.4609 2.96632C27.7934 0.482751 29.7979 0.102705 30.3841 0.0348474C30.6678 -0.0058669 33.5802 -0.331436 34.2086 2.89856C34.9794 6.84785 35.2264 10.8242 34.9536 14.7192C35.5901 18.0307 36.6786 21.3284 38.1158 24.3142C43.8348 36.1892 54.7326 37.3428 66.5398 37.2342C68.3556 37.207 69.8635 38.632 69.9585 40.437C70.0535 42.2556 68.7018 43.8299 66.8941 43.9927C60.2943 44.6306 48.5848 49.9235 44.5364 55.4335C43.6895 56.5871 43.1969 59.3693 42.5455 62.0971C41.6362 65.8836 40.5546 69.6292 39.3427 71.2035C39.1608 71.4478 36.95 73.945 36.2904 74.3114C34.7053 75.18 33.4364 74.6777 32.7157 74.2163C31.9951 73.7549 31.1794 72.8456 30.8537 71.3392C30.5131 69.7649 30.8008 66.5348 30.7479 65.8427C30.5551 63.332 30.053 58.4056 29.0284 54.1713C28.476 51.8913 27.887 49.7877 26.9126 48.7427C23.3053 44.8749 17.5374 45.4449 12.6802 46.0828C12.1224 46.1506 11.5647 46.2321 11.0082 46.3C9.03088 46.8835 6.93133 47.3177 4.7124 47.5756C1.36162 47.9692 0.810652 44.8885 0.780795 44.6849C0.718367 44.237 0.486271 41.9299 3.01191 41.0071C3.28741 40.9121 5.32043 40.4642 6.10351 40.2878C7.19465 40.0435 8.29798 39.8535 9.40541 39.6771C20.8448 36.1214 27.0578 26.1327 28.1041 14.977ZM32.0304 27.3135C36.3488 36.2435 42.9024 40.5592 50.6707 42.5135H50.6694C45.819 45.0513 41.4068 48.2271 39.0685 51.4164C38.1809 52.6243 37.3666 55.0535 36.6324 57.7813C36.2348 55.2435 35.6974 52.5427 34.9876 50.2355C34.1801 47.6027 33.093 45.4178 31.8797 44.115C29.5373 41.6043 26.5977 40.2064 23.4369 39.5143C27.2206 36.1621 30.0897 31.9821 32.0304 27.3135Z" fill="#F1A501"/>
</svg>
